<?xml version="1.0" encoding="UTF-8" standalone="no"?>
<!-- Created with Inkscape (http://www.inkscape.org/) -->

<svg
   version="1.1"
   id="svg1"
   width="312.25333"
   height="156.02667"
   viewBox="0 0 312.25333 156.02667"
   sodipodi:docname="no_name_8-fig-1.eps"
   xmlns:inkscape="http://www.inkscape.org/namespaces/inkscape"
   xmlns:sodipodi="http://sodipodi.sourceforge.net/DTD/sodipodi-0.dtd"
   xmlns="http://www.w3.org/2000/svg"
   xmlns:svg="http://www.w3.org/2000/svg">
  <defs
     id="defs1" />
  <sodipodi:namedview
     id="namedview1"
     pagecolor="#ffffff"
     bordercolor="#999999"
     borderopacity="1"
     inkscape:showpageshadow="0"
     inkscape:pageopacity="0"
     inkscape:pagecheckerboard="0"
     inkscape:deskcolor="#d1d1d1">
    <inkscape:page
       x="0"
       y="0"
       inkscape:label="1"
       id="page1"
       width="312.25333"
       height="156.02667"
       margin="0"
       bleed="0" />
  </sodipodi:namedview>
  <g
     id="g1"
     inkscape:groupmode="layer"
     inkscape:label="1">
    <path
       id="path1"
       d="m 2339.9,427.469 c 0,234.836 -279.2,425.203 -623.63,425.203 -344.42,0 -623.63,-190.367 -623.63,-425.203 0,-234.836 279.21,-425.20337 623.63,-425.20337 344.43,0 623.63,190.36737 623.63,425.20337 z"
       style="fill:none;stroke:#d9d9d9;stroke-width:3.985;stroke-linecap:butt;stroke-linejoin:miter;stroke-miterlimit:10;stroke-dasharray:none;stroke-opacity:1"
       transform="matrix(0.13333333,0,0,-0.13333333,0,156.02667)" />
    <path
       id="path2"
       d="m 2141.48,427.469 c 0,156.554 -190.37,283.469 -425.21,283.469 -234.83,0 -425.2,-126.915 -425.2,-283.469 0,-156.559 190.37,-283.469 425.2,-283.469 234.84,0 425.21,126.91 425.21,283.469 z"
       style="fill:none;stroke:#dfdfdf;stroke-width:3.985;stroke-linecap:butt;stroke-linejoin:miter;stroke-miterlimit:10;stroke-dasharray:none;stroke-opacity:1"
       transform="matrix(0.13333333,0,0,-0.13333333,0,156.02667)" />
    <path
       id="path3"
       d="m 1943.05,427.469 c 0,78.277 -101.53,141.734 -226.78,141.734 -125.24,0 -226.77,-63.457 -226.77,-141.734 0,-78.278 101.53,-141.735 226.77,-141.735 125.25,0 226.78,63.457 226.78,141.735 z"
       style="fill:none;stroke:#e6e6e6;stroke-width:3.985;stroke-linecap:butt;stroke-linejoin:miter;stroke-miterlimit:10;stroke-dasharray:none;stroke-opacity:1"
       transform="matrix(0.13333333,0,0,-0.13333333,0,156.02667)" />
    <g
       id="g3"
       aria-label="θ&#10;∗"
       transform="matrix(1.3333333,0,0,1.3333333,222.912,103.42453)">
      <path
         id="path4"
         d="m 4.1704922,-4.4404703 c 0,-0.9140625 -0.3046875,-1.875 -1.125,-1.875 -1.3125,0 -2.68359376,2.5546875 -2.68359376,4.546875 0,0.6445312 0.19921875,1.86328124 1.13671876,1.86328124 1.3007812,0 2.671875,-2.51953124 2.671875,-4.53515624 z m -2.8242188,1.1835937 c 0.1757813,-0.703125 0.3632813,-1.359375 0.7265625,-1.9804687 0.2226563,-0.3515625 0.5507813,-0.8554688 0.9609375,-0.8554688 0.4921875,0 0.5273438,0.7734375 0.5273438,1.1132813 0,0.5390625 -0.1523438,1.1601562 -0.28125,1.7226562 z m 1.8515625,0.2929688 c -0.140625,0.5625 -0.3164062,1.2304687 -0.6679687,1.875 -0.234375,0.42187499 -0.5976563,0.96093749 -1.0195313,0.96093749 -0.3867187,0 -0.51562496,-0.45703125 -0.51562496,-1.11328129 0,-0.5742187 0.14062496,-1.1601562 0.28124996,-1.7226562 z m 0,0"
         style="fill:#cccccc;fill-opacity:1;fill-rule:nonzero;stroke:none" />
      <path
         id="path5"
         d="m 7.3374844,-4.5635172 c 0.1523437,0.1054688 0.1640625,0.1054688 0.2109375,0.1054688 0.1054687,0 0.1992187,-0.082031 0.1992187,-0.2109375 0,-0.1171875 -0.09375,-0.1523438 -0.140625,-0.1757813 -0.3046875,-0.1289062 -0.609375,-0.2460937 -0.9140625,-0.3632812 0.609375,-0.2460938 0.7734375,-0.3164063 0.8789063,-0.3632813 0.09375,-0.035156 0.1757812,-0.070312 0.1757812,-0.1875 0,-0.1171875 -0.09375,-0.2109375 -0.1992187,-0.2109375 -0.046875,0 -0.082031,0.023437 -0.1289063,0.058594 l -0.8554687,0.5390625 c 0.011719,-0.082031 0.035156,-0.2929688 0.035156,-0.3632813 0.011719,-0.1289062 0.070312,-0.4804687 0.070312,-0.5859375 0,-0.1054687 -0.09375,-0.1757812 -0.1992187,-0.1757812 -0.1054688,0 -0.1992188,0.070312 -0.1992188,0.1757812 0,0.011719 0.046875,0.5507813 0.058594,0.5742188 0,0.070312 0.035156,0.2929687 0.035156,0.375 l -0.84375,-0.5390625 c -0.046875,-0.035156 -0.09375,-0.058594 -0.140625,-0.058594 -0.09375,0 -0.1875,0.09375 -0.1875,0.2109375 0,0.1171875 0.082031,0.1523438 0.1289063,0.1757813 0.3046875,0.1289062 0.609375,0.2578125 0.9257812,0.375 -0.609375,0.2460937 -0.7734375,0.3046875 -0.890625,0.3515625 -0.082031,0.046875 -0.1640625,0.070312 -0.1640625,0.1875 0,0.1289062 0.09375,0.2109375 0.1875,0.2109375 0.046875,0 0.1523438,-0.058594 0.2226563,-0.1054688 0.082031,-0.046875 0.2929687,-0.1875 0.3632812,-0.234375 0.1992188,-0.1289062 0.2695313,-0.1757812 0.3984375,-0.2460937 0,0.082031 -0.035156,0.2929687 -0.035156,0.3632812 l -0.058594,0.5742188 c 0,0.1054687 0.09375,0.1875 0.1992188,0.1875 0.1054687,0 0.1992187,-0.082031 0.1992187,-0.1875 0,0 -0.058594,-0.5390625 -0.070312,-0.5742188 0,-0.058594 -0.023437,-0.2929687 -0.035156,-0.3632812 z m 0,0"
         style="fill:#cccccc;fill-opacity:1;fill-rule:nonzero;stroke:none" />
    </g>
    <path
       id="path6"
       d="M 157.199,710.938 810.996,1146.8"
       style="fill:none;stroke:#cc6600;stroke-width:11.9553;stroke-linecap:butt;stroke-linejoin:miter;stroke-miterlimit:10;stroke-dasharray:none;stroke-opacity:1"
       transform="matrix(0.13333333,0,0,-0.13333333,0,156.02667)" />
    <path
       id="path7"
       d="m 837.523,1164.49 -56.589,-7.08 30.062,-10.61 -1.769,-31.83"
       style="fill:#cc6600;fill-opacity:1;fill-rule:nonzero;stroke:none"
       transform="matrix(0.13333333,0,0,-0.13333333,0,156.02667)" />
    <g
       id="g7"
       aria-label="−αβm&#10;k−1"
       transform="matrix(1.3333333,0,0,1.3333333,4.5854133,23.250133)">
      <path
         id="path8"
         d="m 6.0472681,-2.0508813 c 0.1640625,0 0.3398438,0 0.3398438,-0.1992187 0,-0.1875 -0.1875,-0.1875 -0.3398438,-0.1875 H 1.1019556 c -0.15234372,0 -0.32812497,0 -0.32812497,0.1875 0,0.1992187 0.1640625,0.1992187 0.32812497,0.1992187 z m 0,0"
         style="fill:#cc6600;fill-opacity:1;fill-rule:nonzero;stroke:none" />
      <path
         id="path9"
         d="m 11.604885,-2.109475 c 0,-1.3359375 -0.808593,-1.8515625 -1.570312,-1.8515625 -1.2187502,0 -2.4492189,1.2304687 -2.4492189,2.53125 0,0.9140625 0.6210937,1.5234375 1.5,1.5234375 0.9609379,0 1.6992189,-0.57421875 1.9335939,-0.75 0.117187,0.4453125 0.410156,0.75 0.855469,0.75 0.480468,0 0.773437,-0.46875 0.773437,-0.6328125 0,-0.09375 -0.09375,-0.09375 -0.128906,-0.09375 -0.09375,0 -0.105469,0.0351563 -0.128906,0.1171875 -0.09375,0.2578125 -0.328125,0.38671875 -0.492188,0.38671875 -0.292969,0 -0.292969,-0.796875 -0.292969,-0.97265625 0,-0.1171875 0,-0.140625 0.08203,-0.234375 0.152343,-0.1875 0.398437,-0.5039063 0.632812,-0.9609375 0.269531,-0.5273438 0.410156,-1.078125 0.410156,-1.125 0,-0.011719 0,-0.1054688 -0.117187,-0.1054688 -0.105469,0 -0.105469,0.035156 -0.152344,0.1757813 -0.09375,0.3164062 -0.292969,0.9960937 -0.855469,1.7460937 z m -0.632812,1.1953125 c -0.222656,0.1875 -0.949219,0.78515625 -1.8632814,0.78515625 -0.5039063,0 -0.8320313,-0.328125 -0.8320313,-0.97265625 0,-0.3867188 0.1640625,-1.2773438 0.5273438,-1.8515625 0.234375,-0.3632813 0.703125,-0.7851563 1.2304689,-0.7851563 0.597656,0 0.796875,0.5390625 0.878906,1.078125 0.07031,0.4804688 0.01172,1.3476563 0.05859,1.7460938 z m 7.359375,-4.21875 c 0,-0.609375 -0.433594,-1.1953125 -1.382813,-1.1953125 -0.222656,0 -0.410156,0.035156 -0.667968,0.1640625 -0.796875,0.421875 -1.277344,1.2890625 -1.523438,2.1679687 l -1.40625,5.6367188 c -0.01172,0.058594 0.05859,0.09375 0.117188,0.09375 0.07031,0 0.117187,-0.023437 0.128906,-0.035156 L 14.206448,-0.7501 c 0.222656,0.55078125 0.644531,0.84375 1.242187,0.84375 0.691407,0 1.347657,-0.3046875 1.839844,-0.76171875 0.410156,-0.39843755 0.667969,-0.94921875 0.667969,-1.55859375 0,-0.5507813 -0.234375,-1.1015625 -0.65625,-1.359375 0.445312,-0.2226563 1.03125,-0.8554688 1.03125,-1.546875 z m -1.675781,1.5351562 c -0.140625,0.035156 -0.292969,0.070312 -0.445313,0.070312 -0.128906,0 -0.269531,0 -0.398437,-0.046875 0.117187,-0.070312 0.28125,-0.070312 0.398437,-0.070312 0.152344,0 0.304688,0 0.445313,0.046875 z m 1.136718,-1.6875 c 0,0.5742188 -0.339843,1.3007813 -0.796875,1.5234375 -0.234375,-0.070312 -0.457031,-0.1054687 -0.714843,-0.1054687 -0.46875,0 -0.738282,0.070312 -0.738282,0.3046875 0,0.1875 0.210938,0.2578125 0.632813,0.2578125 0.316406,0 0.515625,-0.058594 0.796875,-0.1289063 0.28125,0.1992188 0.386719,0.6210938 0.386719,0.9609375 0,0.609375 -0.1875,1.2773438 -0.597657,1.73437505 -0.339843,0.36328125 -0.796875,0.609375 -1.300781,0.609375 -0.679687,0 -1.066406,-0.48046875 -1.066406,-1.13671875 0,-0.09375 0,-0.1875 0.02344,-0.28125 l 0.609375,-2.4492188 c 0.210938,-0.7617187 0.890625,-2.109375 1.921875,-2.109375 0.433594,0 0.84375,0.2109375 0.84375,0.8203125 z m 4.186524,3.8789063 c 0.09375,-0.421875 0.269531,-1.078125 0.269531,-1.1484375 0.02344,-0.058594 0.246094,-0.4804688 0.5625,-0.796875 0.269531,-0.2460938 0.609375,-0.3867188 0.960938,-0.3867188 0.480468,0 0.480468,0.4804688 0.480468,0.6328125 0,0.1054688 0,0.2226563 -0.105468,0.6679688 l -0.210938,0.796875 c -0.28125,1.16015625 -0.351562,1.4296875 -0.351562,1.4765625 0,0.1171875 0.07031,0.2578125 0.269531,0.2578125 0.128906,0 0.257812,-0.0703125 0.328125,-0.1875 0.02344,-0.046875 0.09375,-0.33984375 0.140625,-0.515625 l 0.210937,-0.796875 c 0.09375,-0.421875 0.269532,-1.078125 0.269532,-1.1484375 0.02344,-0.058594 0.246093,-0.4804688 0.574218,-0.796875 0.257813,-0.2460938 0.597657,-0.3867188 0.949219,-0.3867188 0.480469,0 0.480469,0.4804688 0.480469,0.6328125 0,0.5390625 -0.421875,1.640625 -0.515625,1.9101563 -0.117188,0.28125 -0.152344,0.375 -0.152344,0.5390625 0,0.48046875 0.375,0.75 0.773438,0.75 0.867187,0 1.207031,-1.2773438 1.207031,-1.3710938 0,-0.046875 -0.02344,-0.1171875 -0.117188,-0.1171875 -0.09375,0 -0.105468,0.046875 -0.140625,0.1640625 -0.222656,0.7617188 -0.597656,1.10156255 -0.925781,1.10156255 -0.05859,0 -0.222656,0 -0.222656,-0.28125 0,-0.22265625 0.09375,-0.45703125 0.164062,-0.65625005 0.175782,-0.4570312 0.539063,-1.40625 0.539063,-1.9101562 0,-0.796875 -0.597656,-0.984375 -1.066406,-0.984375 -0.855469,0 -1.324219,0.6328125 -1.476563,0.8554687 -0.09375,-0.7382812 -0.703125,-0.8554687 -1.078125,-0.8554687 -0.832031,0 -1.277344,0.5859375 -1.417969,0.7734375 -0.05859,-0.4804688 -0.421875,-0.7734375 -0.867187,-0.7734375 -0.375,0 -0.5625,0.28125 -0.691406,0.515625 -0.152344,0.3164062 -0.28125,0.8320312 -0.28125,0.8671875 0,0.082031 0.07031,0.1054687 0.128906,0.1054687 0.09375,0 0.117187,-0.046875 0.164062,-0.2226562 0.164063,-0.7148438 0.351563,-1.0429688 0.65625,-1.0429688 0.269532,0 0.269532,0.28125 0.269532,0.421875 0,0.1875 -0.07031,0.46875 -0.117188,0.703125 -0.07031,0.234375 -0.152344,0.609375 -0.199219,0.7265625 l -0.351562,1.4648438 c -0.07031,0.2109375 -0.07031,0.234375 -0.07031,0.2578125 0,0.1171875 0.08203,0.2578125 0.28125,0.2578125 0.128907,0 0.257813,-0.0703125 0.328125,-0.1875 0.02344,-0.046875 0.09375,-0.33984375 0.140625,-0.515625 z m 0,0"
         style="fill:#cc6600;fill-opacity:1;fill-rule:nonzero;stroke:none" />
      <path
         id="path10"
         d="m 30.419338,-2.8917016 c 0.01172,-0.023437 0.02344,-0.058594 0.02344,-0.082031 0,-0.09375 -0.117188,-0.09375 -0.1875,-0.082031 l -0.679688,0.046875 c -0.09375,0.011719 -0.175781,0.011719 -0.175781,0.1523438 0,0.09375 0.08203,0.09375 0.175781,0.09375 0.175782,0 0.210938,0.023437 0.292969,0.046875 0,0.070312 0,0.082031 -0.02344,0.1757812 l -0.84375,3.33984379 c -0.02344,0.09375 -0.02344,0.12890625 -0.02344,0.140625 0,0.15234371 0.128906,0.19921871 0.210938,0.19921871 0.05859,0 0.175781,-0.023437 0.246093,-0.14062496 0.04687,-0.0703125 0.28125,-1.06640625 0.328125,-1.25390625 0.398438,0.0234375 0.832032,0.1171875 0.832032,0.48046875 0,0.0234375 0,0.0585938 -0.02344,0.1171875 -0.01172,0.09375 -0.01172,0.12890625 -0.01172,0.17578125 0,0.3984375 0.328125,0.62109371 0.667969,0.62109371 0.585938,0 0.785156,-0.86718746 0.785156,-0.91406246 0,-0.0117188 0,-0.09375 -0.105468,-0.09375 -0.08203,0 -0.09375,0.0351563 -0.128907,0.140625 -0.05859,0.22265625 -0.222656,0.66796875 -0.527343,0.66796875 -0.234375,0 -0.234375,-0.2578125 -0.234375,-0.31640625 0,-0.09375 0,-0.10546875 0.03516,-0.22265625 0,-0.0117188 0.02344,-0.12890625 0.02344,-0.19921875 0,-0.45703125 -0.515625,-0.59765625 -0.972656,-0.64453125 0.140625,-0.09375 0.269531,-0.1875 0.503906,-0.3984375 0.304688,-0.25781249 0.609375,-0.51562499 0.9375,-0.51562499 0.08203,0 0.152344,0.011719 0.210938,0.082031 -0.210938,0.035156 -0.304688,0.1992188 -0.304688,0.32812504 0,0.1875 0.152344,0.234375 0.234375,0.234375 0.140625,0 0.351563,-0.09375 0.351563,-0.39843754 0,-0.2578125 -0.1875,-0.4453125 -0.480469,-0.4453125 -0.375,0 -0.738281,0.2929688 -1.007812,0.5273438 -0.304688,0.26953124 -0.492188,0.42187499 -0.714844,0.50390624 z m 0,0"
         style="fill:#cc6600;fill-opacity:1;fill-rule:nonzero;stroke:none" />
      <path
         id="path11"
         d="m 37.277737,-0.25498281 c 0.09375,0 0.246094,0 0.246094,-0.15234375 0,-0.1640625 -0.152344,-0.1640625 -0.246094,-0.1640625 h -3.761719 c -0.105469,0 -0.246094,0 -0.246094,0.1640625 0,0.15234375 0.140625,0.15234375 0.246094,0.15234375 z m 0,0"
         style="fill:#cc6600;fill-opacity:1;fill-rule:nonzero;stroke:none" />
      <path
         id="path12"
         d="m 40.424221,-2.7159203 c 0,-0.1757813 -0.02344,-0.1757813 -0.199218,-0.1757813 -0.398438,0.375 -1.007813,0.375 -1.21875,0.375 v 0.234375 c 0.152343,0 0.550781,0 0.902343,-0.1640625 v 3.02343754 c 0,0.1875 0,0.26953125 -0.609375,0.26953125 H 39.041409 V 1.0809547 c 0.328125,-0.023437 0.796875,-0.023437 1.125,-0.023437 0.339844,0 0.796875,0 1.136719,0.023437 V 0.84657969 h -0.257813 c -0.621094,0 -0.621094,-0.0820313 -0.621094,-0.26953125 z m 0,0"
         style="fill:#cc6600;fill-opacity:1;fill-rule:nonzero;stroke:none" />
    </g>
    <path
       id="path13"
       d="M 157.199,710.938 474.816,393.316"
       style="fill:none;stroke:#b20000;stroke-width:11.9553;stroke-linecap:butt;stroke-linejoin:miter;stroke-miterlimit:10;stroke-dasharray:none;stroke-opacity:1"
       transform="matrix(0.13333333,0,0,-0.13333333,0,156.02667)" />
    <path
       id="path14"
       d="m 497.359,370.773 -18.031,54.106 -4.512,-31.563 -31.558,-4.507"
       style="fill:#b20000;fill-opacity:1;fill-rule:nonzero;stroke:none"
       transform="matrix(0.13333333,0,0,-0.13333333,0,156.02667)" />
    <g
       id="g14"
       aria-label="−αg&#10;k"
       transform="matrix(1.3333333,0,0,1.3333333,6.9677067,96.221467)">
      <path
         id="path15"
         d="m 6.0476575,-2.0498891 c 0.1640625,0 0.3398438,0 0.3398438,-0.1992187 0,-0.1875 -0.1875,-0.1875 -0.3398438,-0.1875 H 1.102345 c -0.15234375,0 -0.328125,0 -0.328125,0.1875 0,0.1992187 0.1640625,0.1992187 0.328125,0.1992187 z m 0,0"
         style="fill:#b20000;fill-opacity:1;fill-rule:nonzero;stroke:none" />
      <path
         id="path16"
         d="m 11.605275,-2.1084828 c 0,-1.3359375 -0.808594,-1.8515625 -1.570313,-1.8515625 -1.2187498,0 -2.4492186,1.2304687 -2.4492186,2.53125 0,0.91406249 0.6210938,1.52343749 1.5,1.52343749 0.9609376,0 1.6992186,-0.57421875 1.9335936,-0.75 0.117188,0.4453125 0.410156,0.75 0.855469,0.75 0.480469,0 0.773437,-0.46875 0.773437,-0.6328125 0,-0.09375 -0.09375,-0.09375 -0.128906,-0.09375 -0.09375,0 -0.105469,0.0351563 -0.128906,0.1171875 -0.09375,0.2578125 -0.328125,0.38671875 -0.492188,0.38671875 -0.292968,0 -0.292968,-0.796875 -0.292968,-0.97265624 0,-0.1171875 0,-0.140625 0.08203,-0.234375 0.152344,-0.1875 0.398437,-0.5039063 0.632812,-0.9609375 0.269532,-0.5273438 0.410157,-1.078125 0.410157,-1.125 0,-0.011719 0,-0.1054688 -0.117188,-0.1054688 -0.105469,0 -0.105469,0.035156 -0.152344,0.1757813 -0.09375,0.3164062 -0.292968,0.9960937 -0.855468,1.7460937 z m -0.632813,1.19531249 c -0.222656,0.1875 -0.949219,0.78515625 -1.8632811,0.78515625 -0.5039062,0 -0.8320312,-0.328125 -0.8320312,-0.97265624 0,-0.3867188 0.1640625,-1.2773438 0.5273437,-1.8515625 0.234375,-0.3632813 0.703125,-0.7851563 1.2304686,-0.7851563 0.597656,0 0.796875,0.5390625 0.878906,1.078125 0.07031,0.4804688 0.01172,1.3476563 0.05859,1.74609379 z m 8.039063,-2.61328129 c 0,-0.140625 -0.117188,-0.2578125 -0.28125,-0.2578125 -0.152344,0 -0.339844,0.1054688 -0.386719,0.3632813 -0.199219,-0.3398438 -0.480469,-0.5390625 -0.855469,-0.5390625 -1.078125,0 -2.179687,1.2773437 -2.179687,2.53125 0,0.84374999 0.527343,1.4296874875 1.242187,1.4296874875 0.398438,0 0.761719,-0.2226562475 1.054688,-0.4921874975 -0.117188,0.4921874975 -0.257813,1.08984375 -0.328125,1.25390625 -0.04687,0.09375 -0.363282,0.85546876 -1.277344,0.85546876 -0.175781,0 -0.46875,-0.011719 -0.691406,-0.070312 0.175781,-0.082031 0.328125,-0.2695313 0.328125,-0.4570313 0,-0.19921871 -0.152344,-0.32812496 -0.339844,-0.32812496 -0.210938,0 -0.492188,0.1640625 -0.492188,0.52734376 0,0.4453125 0.503907,0.5507812 1.21875,0.5507812 1.148438,0 1.816407,-0.6679687 1.957032,-1.24218746 z m -1.230469,2.3671875 c -0.03516,0.1523438 -0.04687,0.17578129 -0.1875,0.33984379 -0.457031,0.52734375 -0.832031,0.59765625 -1.019531,0.59765625 -0.433594,0 -0.597657,-0.43359375 -0.597657,-0.83203124 0,-0.3515625 0.210938,-1.359375 0.480469,-1.875 0.234375,-0.421875 0.632813,-0.8085938 1.042969,-0.8085938 0.574219,0 0.726562,0.6796875 0.726562,0.7617188 0,0.023437 -0.02344,0.09375 -0.02344,0.1289062 z m 0,0"
         style="fill:#b20000;fill-opacity:1;fill-rule:nonzero;stroke:none" />
      <path
         id="path17"
         d="m 21.059376,-2.8936391 c 0.01172,-0.023437 0.02344,-0.058594 0.02344,-0.082031 0,-0.09375 -0.117188,-0.09375 -0.1875,-0.082031 l -0.679688,0.046875 c -0.09375,0.011719 -0.175781,0.011719 -0.175781,0.1523438 0,0.09375 0.08203,0.09375 0.175781,0.09375 0.175781,0 0.210938,0.023437 0.292969,0.046875 0,0.070312 0,0.082031 -0.02344,0.1757812 l -0.84375,3.33984379 c -0.02344,0.09375 -0.02344,0.12890625 -0.02344,0.140625 0,0.15234371 0.128906,0.19921871 0.210937,0.19921871 0.05859,0 0.175782,-0.023437 0.246094,-0.14062496 0.04687,-0.0703125 0.28125,-1.06640625 0.328125,-1.25390625 0.398438,0.0234375 0.832031,0.1171875 0.832031,0.48046875 0,0.0234375 0,0.0585938 -0.02344,0.1171875 -0.01172,0.09375 -0.01172,0.12890625 -0.01172,0.17578125 0,0.3984375 0.328125,0.62109371 0.667969,0.62109371 0.585937,0 0.785156,-0.86718746 0.785156,-0.91406246 0,-0.0117188 0,-0.09375 -0.105469,-0.09375 -0.08203,0 -0.09375,0.0351563 -0.128906,0.140625 -0.05859,0.22265625 -0.222656,0.66796875 -0.527344,0.66796875 -0.234375,0 -0.234375,-0.2578125 -0.234375,-0.31640625 0,-0.09375 0,-0.10546875 0.03516,-0.22265625 0,-0.0117188 0.02344,-0.12890625 0.02344,-0.19921875 0,-0.45703125 -0.515625,-0.59765625 -0.972656,-0.64453125 0.140625,-0.09375 0.269531,-0.1875 0.503906,-0.3984375 0.304688,-0.25781249 0.609375,-0.51562499 0.9375,-0.51562499 0.08203,0 0.152344,0.011719 0.210938,0.082031 -0.210938,0.035156 -0.304688,0.1992188 -0.304688,0.32812504 0,0.1875 0.152344,0.234375 0.234375,0.234375 0.140625,0 0.351563,-0.09375 0.351563,-0.39843754 0,-0.2578125 -0.1875,-0.4453125 -0.480469,-0.4453125 -0.375,0 -0.738281,0.2929688 -1.007813,0.5273438 -0.304687,0.26953124 -0.492187,0.42187499 -0.714843,0.50390624 z m 0,0"
         style="fill:#b20000;fill-opacity:1;fill-rule:nonzero;stroke:none" />
    </g>
    <path
       id="path18"
       d="M 837.523,1164.49 1177.69,824.32"
       style="fill:none;stroke:#bfbfbf;stroke-width:3.985;stroke-linecap:butt;stroke-linejoin:miter;stroke-miterlimit:10;stroke-dasharray:29.8883, 29.8883;stroke-dashoffset:0;stroke-opacity:1"
       transform="matrix(0.13333333,0,0,-0.13333333,0,156.02667)" />
    <path
       id="path19"
       d="M 497.359,370.773 1177.69,824.32"
       style="fill:none;stroke:#bfbfbf;stroke-width:3.985;stroke-linecap:butt;stroke-linejoin:miter;stroke-miterlimit:10;stroke-dasharray:29.8883, 29.8883;stroke-dashoffset:0;stroke-opacity:1"
       transform="matrix(0.13333333,0,0,-0.13333333,0,156.02667)" />
    <path
       id="path20"
       d="M 157.199,710.938 1140.06,820.141"
       style="fill:none;stroke:#006666;stroke-width:15.9404;stroke-linecap:butt;stroke-linejoin:miter;stroke-miterlimit:10;stroke-dasharray:none;stroke-opacity:1"
       transform="matrix(0.13333333,0,0,-0.13333333,0,156.02667)" />
    <path
       id="path21"
       d="m 1177.69,824.32 -63.55,23.414 25.92,-27.593 -19.23,-32.61"
       style="fill:#006666;fill-opacity:1;fill-rule:nonzero;stroke:none"
       transform="matrix(0.13333333,0,0,-0.13333333,0,156.02667)" />
    <g
       id="g21"
       aria-label="−αm&#10;k"
       transform="matrix(1.3333333,0,0,1.3333333,70.786933,68.907333)">
      <path
         id="path22"
         d="m 6.0455422,-2.0515937 c 0.1640625,0 0.3398437,0 0.3398437,-0.1992188 0,-0.1875 -0.1875,-0.1875 -0.3398437,-0.1875 H 1.1002297 c -0.15234376,0 -0.32812501,0 -0.32812501,0.1875 0,0.1992188 0.1640625,0.1992188 0.32812501,0.1992188 z m 0,0"
         style="fill:#006666;fill-opacity:1;fill-rule:nonzero;stroke:none" />
      <path
         id="path23"
         d="m 11.606089,-2.1101875 c 0,-1.3359375 -0.808594,-1.8515625 -1.570312,-1.8515625 -1.2187504,0 -2.4492192,1.2304688 -2.4492192,2.53125 0,0.9140625 0.6210938,1.5234375 1.5,1.5234375 0.9609372,0 1.6992192,-0.57421875 1.9335942,-0.75 0.117187,0.4453125 0.410156,0.75 0.855468,0.75 0.480469,0 0.773438,-0.46875 0.773438,-0.6328125 0,-0.09375 -0.09375,-0.09375 -0.128906,-0.09375 -0.09375,0 -0.105469,0.0351563 -0.128907,0.1171875 -0.09375,0.2578125 -0.328125,0.38671875 -0.492187,0.38671875 -0.292969,0 -0.292969,-0.796875 -0.292969,-0.97265625 0,-0.1171875 0,-0.140625 0.08203,-0.234375 0.152344,-0.1875 0.398438,-0.5039062 0.632813,-0.9609375 0.269531,-0.5273437 0.410156,-1.078125 0.410156,-1.125 0,-0.011719 0,-0.1054687 -0.117187,-0.1054687 -0.105469,0 -0.105469,0.035156 -0.152344,0.1757812 -0.09375,0.3164063 -0.292969,0.9960938 -0.855469,1.7460938 z m -0.632812,1.1953125 c -0.222657,0.1875 -0.949219,0.78515625 -1.8632817,0.78515625 -0.5039062,0 -0.8320312,-0.328125 -0.8320312,-0.97265625 0,-0.3867187 0.1640625,-1.2773437 0.5273437,-1.8515625 0.234375,-0.3632812 0.703125,-0.7851562 1.2304692,-0.7851562 0.597656,0 0.796875,0.5390625 0.878906,1.078125 0.07031,0.4804687 0.01172,1.3476562 0.05859,1.7460937 z m 5.367187,-0.4921875 c 0.09375,-0.421875 0.269531,-1.078125 0.269531,-1.1484375 0.02344,-0.058594 0.246094,-0.4804687 0.5625,-0.796875 0.269532,-0.2460937 0.609375,-0.3867187 0.960938,-0.3867187 0.480469,0 0.480469,0.4804687 0.480469,0.6328125 0,0.1054687 0,0.2226562 -0.105469,0.6679687 l -0.210938,0.796875 c -0.28125,1.16015625 -0.351562,1.4296875 -0.351562,1.4765625 0,0.1171875 0.07031,0.2578125 0.269531,0.2578125 0.128906,0 0.257813,-0.0703125 0.328125,-0.1875 0.02344,-0.046875 0.09375,-0.33984375 0.140625,-0.515625 l 0.210938,-0.796875 c 0.09375,-0.421875 0.269531,-1.078125 0.269531,-1.1484375 0.02344,-0.058594 0.246094,-0.4804687 0.574219,-0.796875 0.257812,-0.2460937 0.597656,-0.3867187 0.949218,-0.3867187 0.480469,0 0.480469,0.4804687 0.480469,0.6328125 0,0.5390625 -0.421875,1.640625 -0.515625,1.9101562 -0.117187,0.28125 -0.152344,0.375 -0.152344,0.5390625 0,0.48046875 0.375,0.75 0.773438,0.75 0.867187,0 1.207031,-1.2773437 1.207031,-1.3710937 0,-0.046875 -0.02344,-0.1171875 -0.117187,-0.1171875 -0.09375,0 -0.105469,0.046875 -0.140625,0.1640625 -0.222657,0.7617187 -0.597657,1.10156245 -0.925782,1.10156245 -0.05859,0 -0.222656,0 -0.222656,-0.28125 0,-0.22265625 0.09375,-0.45703125 0.164063,-0.65624995 0.175781,-0.4570313 0.539062,-1.40625 0.539062,-1.9101563 0,-0.796875 -0.597656,-0.984375 -1.066406,-0.984375 -0.855469,0 -1.324219,0.6328125 -1.476563,0.8554688 C 19.141245,-3.8445625 18.53187,-3.96175 18.15687,-3.96175 c -0.832031,0 -1.277343,0.5859375 -1.417968,0.7734375 -0.05859,-0.4804687 -0.421875,-0.7734375 -0.867188,-0.7734375 -0.375,0 -0.5625,0.28125 -0.691406,0.515625 -0.152344,0.3164063 -0.28125,0.8320313 -0.28125,0.8671875 0,0.082031 0.07031,0.1054688 0.128906,0.1054688 0.09375,0 0.117188,-0.046875 0.164063,-0.2226563 0.164062,-0.7148437 0.351562,-1.0429687 0.65625,-1.0429687 0.269531,0 0.269531,0.28125 0.269531,0.421875 0,0.1875 -0.07031,0.46875 -0.117188,0.703125 -0.07031,0.234375 -0.152343,0.609375 -0.199218,0.7265625 l -0.351563,1.4648437 c -0.07031,0.2109375 -0.07031,0.234375 -0.07031,0.2578125 0,0.1171875 0.08203,0.2578125 0.28125,0.2578125 0.128906,0 0.257812,-0.0703125 0.328125,-0.1875 0.02344,-0.046875 0.09375,-0.33984375 0.140625,-0.515625 z m 0,0"
         style="fill:#006666;fill-opacity:1;fill-rule:nonzero;stroke:none" />
      <path
         id="path24"
         d="m 24.780894,-2.8924141 c 0.01172,-0.023437 0.02344,-0.058594 0.02344,-0.082031 0,-0.09375 -0.117187,-0.09375 -0.1875,-0.082031 l -0.679687,0.046875 c -0.09375,0.011719 -0.175782,0.011719 -0.175782,0.1523438 0,0.09375 0.08203,0.09375 0.175782,0.09375 0.175781,0 0.210937,0.023437 0.292968,0.046875 0,0.070312 0,0.082031 -0.02344,0.1757812 l -0.84375,3.33984379 c -0.02344,0.09375 -0.02344,0.12890625 -0.02344,0.140625 0,0.15234371 0.128907,0.19921871 0.210938,0.19921871 0.05859,0 0.175781,-0.023437 0.246094,-0.14062496 0.04687,-0.0703125 0.28125,-1.06640625 0.328125,-1.25390625 0.398437,0.0234375 0.832031,0.1171875 0.832031,0.48046875 0,0.0234375 0,0.0585938 -0.02344,0.1171875 -0.01172,0.09375 -0.01172,0.12890625 -0.01172,0.17578125 0,0.3984375 0.328125,0.62109371 0.667968,0.62109371 0.585938,0 0.785157,-0.86718746 0.785157,-0.91406246 0,-0.0117188 0,-0.09375 -0.105469,-0.09375 -0.08203,0 -0.09375,0.0351563 -0.128906,0.140625 -0.05859,0.22265625 -0.222657,0.66796875 -0.527344,0.66796875 -0.234375,0 -0.234375,-0.2578125 -0.234375,-0.31640625 0,-0.09375 0,-0.10546875 0.03516,-0.22265625 0,-0.0117188 0.02344,-0.12890625 0.02344,-0.19921875 0,-0.45703125 -0.515625,-0.59765625 -0.972657,-0.64453125 0.140625,-0.09375 0.269532,-0.1875 0.503907,-0.3984375 0.304687,-0.25781249 0.609375,-0.51562499 0.9375,-0.51562499 0.08203,0 0.152343,0.011719 0.210937,0.082031 -0.210937,0.035156 -0.304687,0.1992188 -0.304687,0.32812504 0,0.1875 0.152343,0.234375 0.234375,0.234375 0.140625,0 0.351562,-0.09375 0.351562,-0.39843754 0,-0.2578125 -0.1875,-0.4453125 -0.480469,-0.4453125 -0.375,0 -0.738281,0.2929688 -1.007812,0.5273438 -0.304688,0.26953124 -0.492188,0.42187499 -0.714844,0.50390624 z m 0,0"
         style="fill:#006666;fill-opacity:1;fill-rule:nonzero;stroke:none" />
    </g>
    <path
       id="path25"
       d="m 182.105,710.938 c 0,13.753 -11.148,24.906 -24.906,24.906 -13.754,0 -24.906,-11.153 -24.906,-24.906 0,-13.758 11.152,-24.907 24.906,-24.907 13.758,0 24.906,11.149 24.906,24.907 z"
       style="fill:#000000;fill-opacity:1;fill-rule:nonzero;stroke:none"
       transform="matrix(0.13333333,0,0,-0.13333333,0,156.02667)" />
    <path
       id="path26"
       d="m 1202.59,824.32 c 0,13.758 -11.15,24.91 -24.9,24.91 -13.76,0 -24.91,-11.152 -24.91,-24.91 0,-13.754 11.15,-24.906 24.91,-24.906 13.75,0 24.9,11.152 24.9,24.906 z"
       style="fill:#006666;fill-opacity:1;fill-rule:nonzero;stroke:none"
       transform="matrix(0.13333333,0,0,-0.13333333,0,156.02667)" />
    <g
       id="g26"
       aria-label="θ&#10;k"
       transform="matrix(1.3333333,0,0,1.3333333,4.4177067,74.230267)">
      <path
         id="path27"
         d="m 4.1720716,-4.4412547 c 0,-0.9140625 -0.3046875,-1.875 -1.125,-1.875 -1.3125,0 -2.68359379,2.5546875 -2.68359379,4.546875 0,0.6445313 0.19921875,1.86328126 1.13671879,1.86328126 1.3007812,0 2.671875,-2.51953126 2.671875,-4.53515626 z m -2.8242188,1.1835938 c 0.1757813,-0.703125 0.3632813,-1.359375 0.7265625,-1.9804688 0.2226563,-0.3515625 0.5507813,-0.8554687 0.9609375,-0.8554687 0.4921875,0 0.5273438,0.7734375 0.5273438,1.1132812 0,0.5390625 -0.1523438,1.1601563 -0.28125,1.7226563 z m 1.8515625,0.2929687 c -0.140625,0.5625 -0.3164062,1.2304688 -0.6679687,1.875 -0.234375,0.42187501 -0.5976563,0.96093751 -1.0195313,0.96093751 -0.3867187,0 -0.51562499,-0.45703125 -0.51562499,-1.11328121 0,-0.5742188 0.14062499,-1.1601563 0.28124999,-1.7226563 z m 0,0"
         style="fill:#000000;fill-opacity:1;fill-rule:nonzero;stroke:none" />
      <path
         id="path28"
         d="m 6.2990247,-2.89145 c 0.011719,-0.023437 0.023437,-0.058594 0.023437,-0.082031 0,-0.09375 -0.1171875,-0.09375 -0.1875,-0.082031 l -0.6796875,0.046875 c -0.09375,0.011719 -0.1757813,0.011719 -0.1757813,0.1523438 0,0.09375 0.082031,0.09375 0.1757813,0.09375 0.1757812,0 0.2109375,0.023437 0.2929687,0.046875 0,0.070312 0,0.082031 -0.023437,0.1757812 l -0.84375,3.33984375 c -0.023437,0.09375 -0.023437,0.12890625 -0.023437,0.140625 0,0.15234375 0.1289063,0.19921875 0.2109375,0.19921875 0.058594,0 0.1757813,-0.023437 0.2460938,-0.140625 0.046875,-0.0703125 0.28125,-1.06640625 0.328125,-1.25390625 0.3984375,0.0234375 0.8320312,0.1171875 0.8320312,0.48046875 0,0.0234375 0,0.0585937 -0.023437,0.1171875 -0.011719,0.09375 -0.011719,0.12890625 -0.011719,0.17578125 0,0.3984375 0.328125,0.62109375 0.6679687,0.62109375 0.5859375,0 0.7851563,-0.8671875 0.7851563,-0.9140625 0,-0.0117188 0,-0.09375 -0.1054688,-0.09375 -0.082031,0 -0.09375,0.0351563 -0.1289062,0.140625 -0.058594,0.22265625 -0.2226563,0.66796875 -0.5273438,0.66796875 -0.234375,0 -0.234375,-0.2578125 -0.234375,-0.31640625 0,-0.09375 0,-0.10546875 0.035156,-0.22265625 0,-0.0117188 0.023437,-0.12890625 0.023437,-0.19921875 0,-0.45703125 -0.515625,-0.59765625 -0.9726563,-0.64453125 0.140625,-0.09375 0.2695313,-0.1875 0.5039063,-0.3984375 0.3046875,-0.25781245 0.609375,-0.51562495 0.9375,-0.51562495 0.082031,0 0.1523437,0.011719 0.2109375,0.082031 -0.2109375,0.035156 -0.3046875,0.1992188 -0.3046875,0.328125 0,0.1875 0.1523437,0.234375 0.234375,0.234375 0.140625,0 0.3515625,-0.09375 0.3515625,-0.3984375 0,-0.2578125 -0.1875,-0.4453125 -0.4804688,-0.4453125 -0.375,0 -0.7382812,0.2929688 -1.0078125,0.5273438 -0.3046875,0.2695312 -0.4921875,0.42187495 -0.7148437,0.5039062 z m 0,0"
         style="fill:#000000;fill-opacity:1;fill-rule:nonzero;stroke:none" />
    </g>
    <g
       id="g28"
       aria-label="θ&#10;k+1"
       transform="matrix(1.3333333,0,0,1.3333333,161.71867,49.0064)">
      <path
         id="path29"
         d="m 4.1719375,-4.4403469 c 0,-0.9140625 -0.3046875,-1.875 -1.125,-1.875 -1.3125,0 -2.68359375,2.5546875 -2.68359375,4.546875 0,0.6445313 0.19921875,1.86328128 1.13671875,1.86328128 1.3007813,0 2.671875,-2.51953128 2.671875,-4.53515628 z M 1.3477188,-3.2567531 C 1.5235,-3.9598781 1.711,-4.6161281 2.0742813,-5.2372219 c 0.2226562,-0.3515625 0.5507812,-0.8554687 0.9609375,-0.8554687 0.4921875,0 0.5273437,0.7734375 0.5273437,1.1132812 0,0.5390625 -0.1523437,1.1601563 -0.28125,1.7226563 z m 1.8515625,0.2929687 c -0.140625,0.5625 -0.3164063,1.2304688 -0.6679688,1.875 -0.234375,0.42187503 -0.5976562,0.96093753 -1.0195312,0.96093753 -0.3867188,0 -0.51562505,-0.45703125 -0.51562505,-1.11328123 0,-0.5742188 0.14062505,-1.1601563 0.28125005,-1.7226563 z m 0,0"
         style="fill:#006666;fill-opacity:1;fill-rule:nonzero;stroke:none" />
      <path
         id="path30"
         d="m 6.3018203,-2.8934719 c 0.011719,-0.023437 0.023437,-0.058594 0.023437,-0.082031 0,-0.09375 -0.1171875,-0.09375 -0.1875,-0.082031 l -0.6796875,0.046875 c -0.09375,0.011719 -0.1757812,0.011719 -0.1757812,0.1523438 0,0.09375 0.082031,0.09375 0.1757812,0.09375 0.1757813,0 0.2109375,0.023437 0.2929688,0.046875 0,0.070312 0,0.082031 -0.023437,0.1757812 l -0.84375,3.33984378 c -0.023437,0.09375 -0.023437,0.12890625 -0.023437,0.140625 0,0.15234372 0.1289062,0.19921872 0.2109375,0.19921872 0.058594,0 0.1757812,-0.023437 0.2460937,-0.14062497 0.046875,-0.0703125 0.28125,-1.06640625 0.328125,-1.25390625 0.3984375,0.0234375 0.8320313,0.1171875 0.8320313,0.48046875 0,0.0234375 0,0.0585938 -0.023437,0.1171875 -0.011719,0.09375 -0.011719,0.12890625 -0.011719,0.17578125 0,0.3984375 0.328125,0.62109372 0.6679688,0.62109372 0.5859375,0 0.7851562,-0.86718747 0.7851562,-0.91406247 0,-0.0117188 0,-0.09375 -0.1054687,-0.09375 -0.082031,0 -0.09375,0.0351563 -0.1289063,0.140625 -0.058594,0.22265625 -0.2226562,0.66796875 -0.5273437,0.66796875 -0.234375,0 -0.234375,-0.2578125 -0.234375,-0.31640625 0,-0.09375 0,-0.10546875 0.035156,-0.22265625 0,-0.0117188 0.023437,-0.12890625 0.023437,-0.19921875 0,-0.45703125 -0.515625,-0.59765625 -0.9726562,-0.64453125 0.140625,-0.09375 0.2695312,-0.1875 0.5039062,-0.3984375 0.3046875,-0.25781248 0.609375,-0.51562498 0.9375,-0.51562498 0.082031,0 0.1523438,0.011719 0.2109375,0.082031 -0.2109375,0.035156 -0.3046875,0.1992188 -0.3046875,0.32812503 0,0.1875 0.1523438,0.234375 0.234375,0.234375 0.140625,0 0.3515625,-0.09375 0.3515625,-0.39843753 0,-0.2578125 -0.1875,-0.4453125 -0.4804687,-0.4453125 -0.375,0 -0.7382813,0.2929688 -1.0078125,0.5273438 -0.3046875,0.26953123 -0.4921875,0.42187498 -0.7148438,0.50390623 z m 0,0"
         style="fill:#006666;fill-opacity:1;fill-rule:nonzero;stroke:none" />
      <path
         id="path31"
         d="m 11.340883,-0.25675312 h 1.933594 c 0.08203,0 0.234375,0 0.234375,-0.15234375 0,-0.1640625 -0.152344,-0.1640625 -0.234375,-0.1640625 H 11.340883 V -2.5067531 c 0,-0.082031 0,-0.234375 -0.152344,-0.234375 -0.152344,0 -0.152344,0.1523437 -0.152344,0.234375 v 1.93359373 H 9.1026016 c -0.082031,0 -0.234375,0 -0.234375,0.1640625 0,0.15234375 0.1523437,0.15234375 0.234375,0.15234375 H 11.036195 V 1.6768406 c 0,0.082031 0,0.234375 0.152344,0.234375 0.152344,0 0.152344,-0.1523437 0.152344,-0.234375 z m 4.842773,-2.46093748 c 0,-0.1757813 -0.02344,-0.1757813 -0.199218,-0.1757813 -0.398438,0.375 -1.007813,0.375 -1.21875,0.375 v 0.234375 c 0.152343,0 0.550781,0 0.902343,-0.1640625 v 3.02343753 c 0,0.1875 0,0.26953125 -0.609375,0.26953125 H 14.800844 V 1.0791844 c 0.328125,-0.023437 0.796875,-0.023437 1.125,-0.023437 0.339844,0 0.796875,0 1.136719,0.023437 V 0.84480938 H 16.80475 c -0.621094,0 -0.621094,-0.0820313 -0.621094,-0.26953125 z m 0,0"
         style="fill:#006666;fill-opacity:1;fill-rule:nonzero;stroke:none" />
    </g>
  </g>
</svg>
