<?xml version="1.0" encoding="UTF-8" standalone="no"?>
<!-- Created with Inkscape (http://www.inkscape.org/) -->

<svg
   version="1.1"
   id="svg1"
   width="344.69333"
   height="170.46667"
   viewBox="0 0 344.69333 170.46667"
   sodipodi:docname="no_name_8-fig-2.eps"
   xmlns:inkscape="http://www.inkscape.org/namespaces/inkscape"
   xmlns:sodipodi="http://sodipodi.sourceforge.net/DTD/sodipodi-0.dtd"
   xmlns="http://www.w3.org/2000/svg"
   xmlns:svg="http://www.w3.org/2000/svg">
  <defs
     id="defs1" />
  <sodipodi:namedview
     id="namedview1"
     pagecolor="#ffffff"
     bordercolor="#999999"
     borderopacity="1"
     inkscape:showpageshadow="0"
     inkscape:pageopacity="0"
     inkscape:pagecheckerboard="0"
     inkscape:deskcolor="#d1d1d1">
    <inkscape:page
       x="0"
       y="0"
       inkscape:label="1"
       id="page1"
       width="344.69333"
       height="170.46667"
       margin="0"
       bleed="0" />
  </sodipodi:namedview>
  <g
     id="g1"
     inkscape:groupmode="layer"
     inkscape:label="1">
    <path
       id="path1"
       d="m 2583.34,426.563 c 0,234.832 -279.2,425.199 -623.63,425.199 -344.42,0 -623.62,-190.367 -623.62,-425.199 0,-234.836 279.2,-425.20362 623.62,-425.20362 344.43,0 623.63,190.36762 623.63,425.20362 z"
       style="fill:none;stroke:#d9d9d9;stroke-width:3.985;stroke-linecap:butt;stroke-linejoin:miter;stroke-miterlimit:10;stroke-dasharray:none;stroke-opacity:1"
       transform="matrix(0.13333333,0,0,-0.13333333,0,170.46667)" />
    <path
       id="path2"
       d="m 2384.92,426.563 c 0,156.554 -190.37,283.464 -425.21,283.464 -234.83,0 -425.2,-126.91 -425.2,-283.464 0,-156.559 190.37,-283.469 425.2,-283.469 234.84,0 425.21,126.91 425.21,283.469 z"
       style="fill:none;stroke:#dfdfdf;stroke-width:3.985;stroke-linecap:butt;stroke-linejoin:miter;stroke-miterlimit:10;stroke-dasharray:none;stroke-opacity:1"
       transform="matrix(0.13333333,0,0,-0.13333333,0,170.46667)" />
    <path
       id="path3"
       d="m 2186.49,426.563 c 0,78.277 -101.53,141.73 -226.78,141.73 -125.24,0 -226.77,-63.453 -226.77,-141.73 0,-78.282 101.53,-141.735 226.77,-141.735 125.25,0 226.78,63.453 226.78,141.735 z"
       style="fill:none;stroke:#e6e6e6;stroke-width:3.985;stroke-linecap:butt;stroke-linejoin:miter;stroke-miterlimit:10;stroke-dasharray:none;stroke-opacity:1"
       transform="matrix(0.13333333,0,0,-0.13333333,0,170.46667)" />
    <g
       id="g3"
       aria-label="θ&#10;∗"
       transform="matrix(1.3333333,0,0,1.3333333,255.37067,117.98547)">
      <path
         id="path4"
         d="m 4.1721953,-4.442225 c 0,-0.9140625 -0.3046875,-1.875 -1.125,-1.875 -1.3125,0 -2.68359374,2.5546875 -2.68359374,4.546875 0,0.6445313 0.19921875,1.86328125 1.13671874,1.86328125 1.3007813,0 2.671875,-2.51953125 2.671875,-4.53515625 z m -2.8242187,1.1835938 c 0.1757812,-0.703125 0.3632812,-1.359375 0.7265625,-1.9804688 0.2226562,-0.3515625 0.5507812,-0.8554687 0.9609375,-0.8554687 0.4921875,0 0.5273437,0.7734375 0.5273437,1.1132812 0,0.5390625 -0.1523437,1.1601563 -0.28125,1.7226563 z m 1.8515625,0.2929687 c -0.140625,0.5625 -0.3164063,1.2304688 -0.6679688,1.875 -0.234375,0.421875 -0.5976562,0.9609375 -1.0195312,0.9609375 -0.3867188,0 -0.51562504,-0.45703125 -0.51562504,-1.1132812 0,-0.5742188 0.14062504,-1.1601563 0.28125004,-1.7226563 z m 0,0"
         style="fill:#cccccc;fill-opacity:1;fill-rule:nonzero;stroke:none" />
      <path
         id="path5"
         d="m 7.3362578,-4.6824594 c 0.1523438,0.1054688 0.1640625,0.1054688 0.2109375,0.1054688 0.1054688,0 0.1992188,-0.082031 0.1992188,-0.2109375 0,-0.1171875 -0.09375,-0.1523438 -0.140625,-0.1757813 -0.3046875,-0.1289062 -0.609375,-0.2460937 -0.9140625,-0.3632812 0.609375,-0.2460938 0.7734375,-0.3164063 0.8789062,-0.3632813 0.09375,-0.035156 0.1757813,-0.070312 0.1757813,-0.1875 0,-0.1171875 -0.09375,-0.2109375 -0.1992188,-0.2109375 -0.046875,0 -0.082031,0.023437 -0.1289062,0.058594 l -0.8554688,0.5390625 c 0.011719,-0.082031 0.035156,-0.2929688 0.035156,-0.3632813 0.011719,-0.1289062 0.070312,-0.4804687 0.070312,-0.5859375 0,-0.1054687 -0.09375,-0.1757812 -0.1992188,-0.1757812 -0.1054687,0 -0.1992187,0.070312 -0.1992187,0.1757812 0,0.011719 0.046875,0.5507813 0.058594,0.5742188 0,0.070312 0.035156,0.2929687 0.035156,0.375 l -0.84375,-0.5390625 c -0.046875,-0.035156 -0.09375,-0.058594 -0.140625,-0.058594 -0.09375,0 -0.1875,0.09375 -0.1875,0.2109375 0,0.1171875 0.082031,0.1523438 0.1289062,0.1757813 0.3046875,0.1289062 0.609375,0.2578125 0.9257813,0.375 -0.609375,0.2460937 -0.7734375,0.3046875 -0.890625,0.3515625 -0.082031,0.046875 -0.1640625,0.070312 -0.1640625,0.1875 0,0.1289062 0.09375,0.2109375 0.1875,0.2109375 0.046875,0 0.1523437,-0.058594 0.2226562,-0.1054688 0.082031,-0.046875 0.2929688,-0.1875 0.3632813,-0.234375 0.1992187,-0.1289062 0.2695312,-0.1757812 0.3984375,-0.2460937 0,0.082031 -0.035156,0.2929687 -0.035156,0.3632812 l -0.058594,0.5742188 c 0,0.1054687 0.09375,0.1875 0.1992187,0.1875 0.1054688,0 0.1992188,-0.082031 0.1992188,-0.1875 0,0 -0.058594,-0.5390625 -0.070312,-0.5742188 0,-0.058594 -0.023437,-0.2929687 -0.035156,-0.3632812 z m 0,0"
         style="fill:#cccccc;fill-opacity:1;fill-rule:nonzero;stroke:none" />
    </g>
    <path
       id="path6"
       d="M 315.602,653.336 969.395,1089.2"
       style="fill:none;stroke:#660066;stroke-width:11.9553;stroke-linecap:butt;stroke-linejoin:miter;stroke-miterlimit:10;stroke-dasharray:none;stroke-opacity:1"
       transform="matrix(0.13333333,0,0,-0.13333333,0,170.46667)" />
    <path
       id="path7"
       d="m 995.922,1106.89 -56.586,-7.08 30.059,-10.61 -1.766,-31.83"
       style="fill:#660066;fill-opacity:1;fill-rule:nonzero;stroke:none"
       transform="matrix(0.13333333,0,0,-0.13333333,0,170.46667)" />
    <g
       id="g7"
       aria-label="−αβm&#10;k−1"
       transform="matrix(1.3333333,0,0,1.3333333,25.7052,45.370267)">
      <path
         id="path8"
         d="m 6.0482484,-2.0501609 c 0.1640625,0 0.3398438,0 0.3398438,-0.1992188 0,-0.1875 -0.1875,-0.1875 -0.3398438,-0.1875 H 1.1029359 c -0.15234371,0 -0.32812496,0 -0.32812496,0.1875 0,0.1992188 0.1640625,0.1992188 0.32812496,0.1992188 z m 0,0"
         style="fill:#660066;fill-opacity:1;fill-rule:nonzero;stroke:none" />
      <path
         id="path9"
         d="m 11.605866,-2.1087547 c 0,-1.3359375 -0.808594,-1.8515625 -1.570313,-1.8515625 -1.2187499,0 -2.4492186,1.2304688 -2.4492186,2.53125 0,0.91406251 0.6210937,1.52343751 1.5,1.52343751 0.9609376,0 1.6992186,-0.57421875 1.9335936,-0.75 0.117188,0.4453125 0.410156,0.75 0.855469,0.75 0.480469,0 0.773437,-0.46875 0.773437,-0.6328125 0,-0.09375 -0.09375,-0.09375 -0.128906,-0.09375 -0.09375,0 -0.105469,0.0351563 -0.128906,0.1171875 -0.09375,0.2578125 -0.328125,0.38671875 -0.492188,0.38671875 -0.292968,0 -0.292968,-0.796875 -0.292968,-0.97265626 0,-0.1171875 0,-0.140625 0.08203,-0.234375 0.152344,-0.1875 0.398437,-0.5039062 0.632812,-0.9609375 0.269532,-0.5273437 0.410157,-1.078125 0.410157,-1.125 0,-0.011719 0,-0.1054687 -0.117188,-0.1054687 -0.105469,0 -0.105469,0.035156 -0.152344,0.1757812 -0.09375,0.3164063 -0.292968,0.9960938 -0.855468,1.7460938 z m -0.632813,1.19531251 c -0.222656,0.1875 -0.949219,0.78515625 -1.8632811,0.78515625 -0.5039063,0 -0.8320313,-0.328125 -0.8320313,-0.97265626 0,-0.3867187 0.1640625,-1.2773437 0.5273438,-1.8515625 0.234375,-0.3632812 0.703125,-0.7851562 1.2304686,-0.7851562 0.597656,0 0.796875,0.5390625 0.878906,1.078125 0.07031,0.4804687 0.01172,1.3476562 0.05859,1.74609371 z m 7.356445,-4.21875001 c 0,-0.609375 -0.433593,-1.1953125 -1.382812,-1.1953125 -0.222656,0 -0.410156,0.035156 -0.667969,0.1640625 -0.796875,0.421875 -1.277344,1.2890625 -1.523437,2.1679688 l -1.40625,5.6367187 c -0.01172,0.058594 0.05859,0.09375 0.117187,0.09375 0.07031,0 0.117188,-0.023437 0.128906,-0.035156 l 0.609375,-2.44921879 c 0.222657,0.55078125 0.644532,0.84375 1.242188,0.84375 0.691406,0 1.347656,-0.3046875 1.839844,-0.76171875 0.410156,-0.39843746 0.667968,-0.94921876 0.667968,-1.55859376 0,-0.5507812 -0.234375,-1.1015625 -0.65625,-1.359375 0.445313,-0.2226562 1.03125,-0.8554687 1.03125,-1.5468752 z m -1.675781,1.5351563 c -0.140625,0.035156 -0.292969,0.070312 -0.445312,0.070312 -0.128907,0 -0.269532,0 -0.398438,-0.046875 0.117188,-0.070312 0.28125,-0.070312 0.398438,-0.070312 0.152343,0 0.304687,0 0.445312,0.046875 z m 1.136719,-1.6875 c 0,0.5742187 -0.339844,1.3007812 -0.796875,1.5234375 -0.234375,-0.070312 -0.457031,-0.1054688 -0.714844,-0.1054688 -0.46875,0 -0.738281,0.070312 -0.738281,0.3046875 0,0.1875 0.210937,0.2578125 0.632812,0.2578125 0.316407,0 0.515625,-0.058594 0.796875,-0.1289062 0.28125,0.1992187 0.386719,0.6210937 0.386719,0.9609375 0,0.609375 -0.1875,1.2773437 -0.597656,1.73437496 -0.339844,0.36328125 -0.796875,0.609375 -1.300781,0.609375 -0.679688,0 -1.066407,-0.48046875 -1.066407,-1.13671876 0,-0.09375 0,-0.1875 0.02344,-0.28125 l 0.609375,-2.4492187 c 0.210937,-0.7617188 0.890625,-2.109375 1.921875,-2.109375 0.433594,0 0.84375,0.2109375 0.84375,0.8203125 z m 4.189453,3.8789062 c 0.09375,-0.421875 0.269531,-1.078125 0.269531,-1.1484375 0.02344,-0.058594 0.246094,-0.4804687 0.5625,-0.796875 0.269532,-0.2460937 0.609375,-0.3867187 0.960938,-0.3867187 0.480469,0 0.480469,0.4804687 0.480469,0.6328125 0,0.1054687 0,0.2226562 -0.105469,0.6679687 l -0.210938,0.796875 c -0.28125,1.16015626 -0.351562,1.42968751 -0.351562,1.47656251 0,0.1171875 0.07031,0.2578125 0.269531,0.2578125 0.128906,0 0.257813,-0.0703125 0.328125,-0.1875 0.02344,-0.046875 0.09375,-0.33984375 0.140625,-0.515625 l 0.210938,-0.79687501 c 0.09375,-0.421875 0.269531,-1.078125 0.269531,-1.1484375 0.02344,-0.058594 0.246094,-0.4804687 0.574219,-0.796875 0.257812,-0.2460937 0.597656,-0.3867187 0.949218,-0.3867187 0.480469,0 0.480469,0.4804687 0.480469,0.6328125 0,0.5390625 -0.421875,1.640625 -0.515625,1.9101562 -0.117187,0.28125001 -0.152344,0.37500001 -0.152344,0.53906251 0,0.48046875 0.375,0.75 0.773438,0.75 0.867187,0 1.207031,-1.27734371 1.207031,-1.37109371 0,-0.046875 -0.02344,-0.1171875 -0.117187,-0.1171875 -0.09375,0 -0.105469,0.046875 -0.140625,0.1640625 -0.222657,0.76171871 -0.597657,1.10156246 -0.925782,1.10156246 -0.05859,0 -0.222656,0 -0.222656,-0.28125 0,-0.22265625 0.09375,-0.45703125 0.164063,-0.65624996 0.175781,-0.4570313 0.539062,-1.40625 0.539062,-1.9101563 0,-0.796875 -0.597656,-0.984375 -1.066406,-0.984375 -0.855469,0 -1.324219,0.6328125 -1.476563,0.8554688 -0.09375,-0.7382813 -0.703125,-0.8554688 -1.078125,-0.8554688 -0.832031,0 -1.277343,0.5859375 -1.417968,0.7734375 -0.05859,-0.4804687 -0.421875,-0.7734375 -0.867188,-0.7734375 -0.375,0 -0.5625,0.28125 -0.691406,0.515625 -0.152344,0.3164063 -0.28125,0.8320313 -0.28125,0.8671875 0,0.082031 0.07031,0.1054688 0.128906,0.1054688 0.09375,0 0.117188,-0.046875 0.164063,-0.2226563 0.164062,-0.7148437 0.351562,-1.0429687 0.65625,-1.0429687 0.269531,0 0.269531,0.28125 0.269531,0.421875 0,0.1875 -0.07031,0.46875 -0.117188,0.703125 -0.07031,0.234375 -0.152343,0.609375 -0.199218,0.7265625 l -0.351563,1.46484371 c -0.07031,0.2109375 -0.07031,0.234375 -0.07031,0.2578125 0,0.1171875 0.08203,0.2578125 0.28125,0.2578125 0.128906,0 0.257812,-0.0703125 0.328125,-0.1875 0.02344,-0.046875 0.09375,-0.33984375 0.140625,-0.515625 z m 0,0"
         style="fill:#660066;fill-opacity:1;fill-rule:nonzero;stroke:none" />
      <path
         id="path10"
         d="m 30.420319,-2.8939109 c 0.01172,-0.023437 0.02344,-0.058594 0.02344,-0.082031 0,-0.09375 -0.117187,-0.09375 -0.1875,-0.082031 l -0.679687,0.046875 c -0.09375,0.011719 -0.175782,0.011719 -0.175782,0.1523437 0,0.09375 0.08203,0.09375 0.175782,0.09375 0.175781,0 0.210937,0.023437 0.292968,0.046875 0,0.070312 0,0.082031 -0.02344,0.1757813 l -0.84375,3.33984371 c -0.02344,0.09375 -0.02344,0.12890625 -0.02344,0.140625 0,0.15234379 0.128907,0.19921879 0.210938,0.19921879 0.05859,0 0.175781,-0.023437 0.246094,-0.14062504 0.04687,-0.0703125 0.28125,-1.06640625 0.328125,-1.25390625 0.398437,0.0234375 0.832031,0.1171875 0.832031,0.48046875 0,0.0234375 0,0.0585938 -0.02344,0.1171875 -0.01172,0.09375 -0.01172,0.12890625 -0.01172,0.17578125 0,0.3984375 0.328125,0.62109379 0.667968,0.62109379 0.585938,0 0.785157,-0.86718754 0.785157,-0.91406254 0,-0.0117188 0,-0.09375 -0.105469,-0.09375 -0.08203,0 -0.09375,0.0351563 -0.128906,0.140625 -0.05859,0.22265625 -0.222657,0.66796875 -0.527344,0.66796875 -0.234375,0 -0.234375,-0.2578125 -0.234375,-0.31640625 0,-0.09375 0,-0.10546875 0.03516,-0.22265625 0,-0.0117188 0.02344,-0.12890625 0.02344,-0.19921875 0,-0.45703125 -0.515625,-0.59765625 -0.972657,-0.64453125 0.140625,-0.09375 0.269532,-0.1875 0.503907,-0.3984375 0.304687,-0.25781251 0.609375,-0.51562501 0.9375,-0.51562501 0.08203,0 0.152343,0.011719 0.210937,0.082031 -0.210937,0.035156 -0.304687,0.1992187 -0.304687,0.32812496 0,0.1875 0.152343,0.234375 0.234375,0.234375 0.140625,0 0.351562,-0.09375 0.351562,-0.39843746 0,-0.2578125 -0.1875,-0.4453125 -0.480469,-0.4453125 -0.375,0 -0.738281,0.2929687 -1.007812,0.5273437 -0.304688,0.26953126 -0.492188,0.42187501 -0.714844,0.50390626 z m 0,0"
         style="fill:#660066;fill-opacity:1;fill-rule:nonzero;stroke:none" />
      <path
         id="path11"
         d="m 37.278717,-0.25719219 c 0.09375,0 0.246094,0 0.246094,-0.15234375 0,-0.1640625 -0.152344,-0.1640625 -0.246094,-0.1640625 h -3.761719 c -0.105468,0 -0.246093,0 -0.246093,0.1640625 0,0.15234375 0.140625,0.15234375 0.246093,0.15234375 z m 0,0"
         style="fill:#660066;fill-opacity:1;fill-rule:nonzero;stroke:none" />
      <path
         id="path12"
         d="m 40.425202,-2.7181297 c 0,-0.1757812 -0.02344,-0.1757812 -0.199219,-0.1757812 -0.398438,0.375 -1.007813,0.375 -1.21875,0.375 v 0.234375 c 0.152344,0 0.550781,0 0.902344,-0.1640625 v 3.02343746 c 0,0.1875 0,0.26953125 -0.609375,0.26953125 H 39.042389 V 1.0787453 c 0.328125,-0.023437 0.796875,-0.023437 1.125,-0.023437 0.339844,0 0.796875,0 1.136719,0.023437 V 0.84437031 h -0.257813 c -0.621093,0 -0.621093,-0.0820313 -0.621093,-0.26953125 z m 0,0"
         style="fill:#660066;fill-opacity:1;fill-rule:nonzero;stroke:none" />
    </g>
    <path
       id="path13"
       d="m 1015.85,1106.89 c 0,11 -8.92,19.92 -19.928,19.92 -11.004,0 -19.926,-8.92 -19.926,-19.92 0,-11.01 8.922,-19.93 19.926,-19.93 11.008,0 19.928,8.92 19.928,19.93 z"
       style="fill:#660066;fill-opacity:1;fill-rule:nonzero;stroke:none"
       transform="matrix(0.13333333,0,0,-0.13333333,0,170.46667)" />
    <g
       id="g13"
       aria-label="˜&#10;θ&#10;k&#10;=θ&#10;k&#10;−αβm&#10;k−1"
       transform="matrix(1.3333333,0,0,1.3333333,138.44267,12.464)">
      <path
         id="path14"
         d="m 3.6670234,-5.9993672 c -0.2460937,0.2460938 -0.4453125,0.4101563 -0.7265625,0.4101563 -0.1992187,0 -0.3632812,-0.070312 -0.6445312,-0.2226563 -0.1171875,-0.070312 -0.328125,-0.1875 -0.5390625,-0.1875 -0.328125,0 -0.5039063,0.1875 -0.98437501,0.7148438 l 0.1640625,0.1523437 c 0.23437501,-0.2460937 0.44531251,-0.421875 0.72656251,-0.421875 0.1875,0 0.3632812,0.082031 0.6445312,0.234375 0.1171875,0.070312 0.3164063,0.1875 0.5390625,0.1875 0.328125,0 0.4921875,-0.1875 0.984375,-0.7148437 z m 0,0"
         style="fill:#660066;fill-opacity:1;fill-rule:nonzero;stroke:none" />
      <path
         id="path15"
         d="m 3.4531563,-2.0413594 c 0,-0.9140625 -0.3046875,-1.875 -1.125,-1.875 -1.3125,0 -2.6835938,2.5546875 -2.6835938,4.54687503 0,0.64453127 0.19921875,1.86328127 1.13671875,1.86328127 1.30078125,0 2.67187505,-2.51953127 2.67187505,-4.5351563 z M 0.6289375,-0.85776562 C 0.80471875,-1.5608906 0.99221875,-2.2171406 1.3555,-2.8382344 c 0.2226563,-0.3515625 0.5507813,-0.8554687 0.9609375,-0.8554687 0.4921875,0 0.5273438,0.7734375 0.5273438,1.1132812 0,0.5390625 -0.1523438,1.1601563 -0.28125,1.72265628 z M 2.4805,-0.56479687 C 2.339875,-0.00229687 2.1640938,0.66567188 1.8125313,1.3102031 1.5781563,1.7320781 1.214875,2.2711406 0.793,2.2711406 c -0.38671875,0 -0.515625,-0.4570312 -0.515625,-1.1132812 0,-0.57421877 0.140625,-1.16015627 0.28125,-1.72265627 z m 0,0"
         style="fill:#660066;fill-opacity:1;fill-rule:nonzero;stroke:none" />
      <path
         id="path16"
         d="m 5.5801094,-0.49155469 c 0.011719,-0.0234375 0.023437,-0.0585937 0.023437,-0.0820312 0,-0.09375 -0.1171875,-0.09375 -0.1875,-0.0820313 l -0.6796875,0.046875 c -0.09375,0.0117188 -0.1757813,0.0117188 -0.1757813,0.15234375 0,0.09375 0.082031,0.09375 0.1757813,0.09375 0.1757812,0 0.2109375,0.0234375 0.2929687,0.046875 0,0.0703125 0,0.0820313 -0.023437,0.17578125 l -0.84375,3.33984379 c -0.023437,0.09375 -0.023437,0.1289062 -0.023437,0.140625 0,0.1523437 0.1289063,0.1992187 0.2109375,0.1992187 0.058594,0 0.1757813,-0.023437 0.2460938,-0.140625 0.046875,-0.070312 0.28125,-1.0664062 0.328125,-1.2539062 0.3984375,0.023437 0.8320312,0.1171875 0.8320312,0.4804687 0,0.023437 0,0.058594 -0.023437,0.1171875 -0.011719,0.09375 -0.011719,0.1289063 -0.011719,0.1757813 0,0.3984375 0.328125,0.6210937 0.6679687,0.6210937 0.5859375,0 0.7851563,-0.8671875 0.7851563,-0.9140625 0,-0.011719 0,-0.09375 -0.1054688,-0.09375 -0.082031,0 -0.09375,0.035156 -0.1289062,0.140625 -0.058594,0.2226563 -0.2226563,0.6679688 -0.5273438,0.6679688 -0.234375,0 -0.234375,-0.2578125 -0.234375,-0.3164063 0,-0.09375 0,-0.1054687 0.035156,-0.2226562 0,-0.011719 0.023437,-0.1289063 0.023437,-0.1992188 0,-0.4570312 -0.515625,-0.5976562 -0.9726563,-0.6445312 0.140625,-0.09375 0.2695313,-0.1875 0.5039063,-0.3984375 0.3046875,-0.2578125 0.609375,-0.515625 0.9375,-0.515625 0.082031,0 0.1523437,0.011719 0.2109375,0.082031 -0.2109375,0.035156 -0.3046875,0.1992188 -0.3046875,0.328125 0,0.1875 0.1523437,0.234375 0.234375,0.234375 0.140625,0 0.3515625,-0.09375 0.3515625,-0.3984375 0,-0.2578125 -0.1875,-0.44531249 -0.4804688,-0.44531249 -0.375,0 -0.7382812,0.29296879 -1.0078125,0.52734379 C 5.404328,1.6412576 5.216828,1.7936014 4.9941718,1.8756326 Z m 0,0"
         style="fill:#660066;fill-opacity:1;fill-rule:nonzero;stroke:none" />
      <path
         id="path17"
         d="m 17.032258,-0.56479687 c 0.117187,0 0.292969,0 0.292969,-0.1875 0,-0.19921875 -0.199219,-0.19921875 -0.328125,-0.19921875 h -5.472657 c -0.140625,0 -0.328125,0 -0.328125,0.19921875 0,0.1875 0.175782,0.1875 0.292969,0.1875 z m -0.03516,1.82812497 c 0.128906,0 0.328125,0 0.328125,-0.1992187 0,-0.18750002 -0.175782,-0.18750002 -0.292969,-0.18750002 h -5.542969 c -0.117187,0 -0.292969,0 -0.292969,0.18750002 0,0.1992187 0.1875,0.1992187 0.328125,0.1992187 z m 0,0"
         style="fill:#660066;fill-opacity:1;fill-rule:nonzero;stroke:none" />
      <path
         id="path18"
         d="m 24.573273,-2.0413594 c 0,-0.9140625 -0.304687,-1.875 -1.125,-1.875 -1.3125,0 -2.683593,2.5546875 -2.683593,4.54687503 0,0.64453127 0.199218,1.86328127 1.136718,1.86328127 1.300782,0 2.671875,-2.51953127 2.671875,-4.5351563 z m -2.824218,1.18359378 c 0.175781,-0.70312498 0.363281,-1.35937498 0.726562,-1.98046878 0.222656,-0.3515625 0.550781,-0.8554687 0.960938,-0.8554687 0.492187,0 0.527343,0.7734375 0.527343,1.1132812 0,0.5390625 -0.152343,1.1601563 -0.28125,1.72265628 z m 1.851562,0.29296875 c -0.140625,0.5625 -0.316406,1.23046875 -0.667969,1.87499997 -0.234375,0.421875 -0.597656,0.9609375 -1.019531,0.9609375 -0.386719,0 -0.515625,-0.4570312 -0.515625,-1.1132812 0,-0.57421877 0.140625,-1.16015627 0.28125,-1.72265627 z m 0,0"
         style="fill:#660066;fill-opacity:1;fill-rule:nonzero;stroke:none" />
      <path
         id="path19"
         d="m 26.700227,-0.49155469 c 0.01172,-0.0234375 0.02344,-0.0585937 0.02344,-0.0820312 0,-0.09375 -0.117187,-0.09375 -0.1875,-0.0820313 l -0.679687,0.046875 c -0.09375,0.0117188 -0.175782,0.0117188 -0.175782,0.15234375 0,0.09375 0.08203,0.09375 0.175782,0.09375 0.175781,0 0.210937,0.0234375 0.292968,0.046875 0,0.0703125 0,0.0820313 -0.02344,0.17578125 l -0.84375,3.33984379 c -0.02344,0.09375 -0.02344,0.1289062 -0.02344,0.140625 0,0.1523437 0.128907,0.1992187 0.210938,0.1992187 0.05859,0 0.175781,-0.023437 0.246094,-0.140625 0.04687,-0.070312 0.28125,-1.0664062 0.328125,-1.2539062 0.398437,0.023437 0.832031,0.1171875 0.832031,0.4804687 0,0.023437 0,0.058594 -0.02344,0.1171875 -0.01172,0.09375 -0.01172,0.1289063 -0.01172,0.1757813 0,0.3984375 0.328125,0.6210937 0.667968,0.6210937 0.585938,0 0.785157,-0.8671875 0.785157,-0.9140625 0,-0.011719 0,-0.09375 -0.105469,-0.09375 -0.08203,0 -0.09375,0.035156 -0.128906,0.140625 -0.05859,0.2226563 -0.222657,0.6679688 -0.527344,0.6679688 -0.234375,0 -0.234375,-0.2578125 -0.234375,-0.3164063 0,-0.09375 0,-0.1054687 0.03516,-0.2226562 0,-0.011719 0.02344,-0.1289063 0.02344,-0.1992188 0,-0.4570312 -0.515625,-0.5976562 -0.972657,-0.6445312 0.140625,-0.09375 0.269532,-0.1875 0.503907,-0.3984375 0.304687,-0.2578125 0.609375,-0.515625 0.9375,-0.515625 0.08203,0 0.152343,0.011719 0.210937,0.082031 -0.210937,0.035156 -0.304687,0.1992188 -0.304687,0.328125 0,0.1875 0.152343,0.234375 0.234375,0.234375 0.140625,0 0.351562,-0.09375 0.351562,-0.3984375 0,-0.2578125 -0.1875,-0.44531249 -0.480469,-0.44531249 -0.375,0 -0.738281,0.29296879 -1.007812,0.52734379 -0.304688,0.2695312 -0.492188,0.421875 -0.714844,0.5039062 z m 0,0"
         style="fill:#660066;fill-opacity:1;fill-rule:nonzero;stroke:none" />
      <path
         id="path20"
         d="m 37.367219,0.34926563 c 0.164062,0 0.339844,0 0.339844,-0.19921875 0,-0.1875 -0.1875,-0.1875 -0.339844,-0.1875 h -4.945313 c -0.152343,0 -0.328125,0 -0.328125,0.1875 0,0.19921875 0.164063,0.19921875 0.328125,0.19921875 z m 0,0"
         style="fill:#660066;fill-opacity:1;fill-rule:nonzero;stroke:none" />
      <path
         id="path21"
         d="m 44.966828,0.29067188 c 0,-1.33593748 -0.808594,-1.85156248 -1.570312,-1.85156248 -1.21875,0 -2.449219,1.23046873 -2.449219,2.53124998 0,0.91406252 0.621094,1.52343752 1.5,1.52343752 0.960937,0 1.699219,-0.5742188 1.933594,-0.75 0.117187,0.4453125 0.410156,0.75 0.855468,0.75 0.480469,0 0.773438,-0.46875 0.773438,-0.6328125 0,-0.09375 -0.09375,-0.09375 -0.128906,-0.09375 -0.09375,0 -0.105469,0.035156 -0.128907,0.1171875 -0.09375,0.2578125 -0.328125,0.3867187 -0.492187,0.3867187 -0.292969,0 -0.292969,-0.796875 -0.292969,-0.9726562 0,-0.1171875 0,-0.140625 0.08203,-0.234375 0.152344,-0.18750002 0.398438,-0.50390627 0.632813,-0.96093752 0.269531,-0.52734375 0.410156,-1.078125 0.410156,-1.12499998 0,-0.011719 0,-0.1054688 -0.117187,-0.1054688 -0.105469,0 -0.105469,0.035156 -0.152344,0.17578128 -0.09375,0.31640625 -0.292969,0.99609375 -0.855469,1.74609375 z M 44.334016,1.4859844 c -0.222657,0.1875 -0.949219,0.7851562 -1.863282,0.7851562 -0.503906,0 -0.832031,-0.328125 -0.832031,-0.9726562 0,-0.38671877 0.164063,-1.27734377 0.527344,-1.85156252 0.234375,-0.36328125 0.703125,-0.78515628 1.230469,-0.78515628 0.597656,0 0.796875,0.53906253 0.878906,1.07812503 0.07031,0.48046875 0.01172,1.34765627 0.05859,1.74609377 z m 7.356445,-4.21875 c 0,-0.609375 -0.433594,-1.1953125 -1.382813,-1.1953125 -0.222656,0 -0.410156,0.035156 -0.667968,0.1640625 -0.796875,0.421875 -1.277344,1.2890625 -1.523438,2.1679687 l -1.40625,5.6367188 c -0.01172,0.058594 0.05859,0.09375 0.117188,0.09375 0.07031,0 0.117187,-0.023437 0.128906,-0.035156 l 0.609375,-2.4492187 c 0.222656,0.5507812 0.644531,0.84375 1.242187,0.84375 0.691407,0 1.347657,-0.3046875 1.839844,-0.7617188 0.410156,-0.3984375 0.667969,-0.94921872 0.667969,-1.55859372 0,-0.55078125 -0.234375,-1.1015625 -0.65625,-1.35937498 0.445312,-0.2226563 1.03125,-0.8554688 1.03125,-1.5468753 z m -1.675781,1.5351562 c -0.140625,0.035156 -0.292969,0.070312 -0.445313,0.070312 -0.128906,0 -0.269531,0 -0.398437,-0.046875 0.117187,-0.070312 0.28125,-0.070312 0.398437,-0.070312 0.152344,0 0.304688,0 0.445313,0.046875 z m 1.136718,-1.6875 c 0,0.5742188 -0.339843,1.3007813 -0.796875,1.5234375 -0.234375,-0.070312 -0.457031,-0.1054687 -0.714843,-0.1054687 -0.46875,0 -0.738282,0.070312 -0.738282,0.3046875 0,0.18749998 0.210938,0.25781248 0.632813,0.25781248 0.316406,0 0.515625,-0.0585938 0.796875,-0.12890628 0.28125,0.19921878 0.386719,0.62109378 0.386719,0.96093753 0,0.609375 -0.1875,1.27734377 -0.597657,1.73437497 -0.339843,0.3632813 -0.796875,0.609375 -1.300781,0.609375 -0.679687,0 -1.066406,-0.4804687 -1.066406,-1.1367187 0,-0.09375 0,-0.18750002 0.02344,-0.28125002 l 0.609375,-2.44921878 c 0.210938,-0.7617187 0.890625,-2.109375 1.921875,-2.109375 0.433594,0 0.84375,0.2109375 0.84375,0.8203125 z m 4.186524,3.87890628 c 0.09375,-0.421875 0.269531,-1.078125 0.269531,-1.1484375 0.02344,-0.0585938 0.246094,-0.48046875 0.5625,-0.796875 0.269531,-0.24609378 0.609375,-0.38671878 0.960938,-0.38671878 0.480468,0 0.480468,0.48046878 0.480468,0.63281253 0,0.10546875 0,0.22265625 -0.105468,0.66796875 l -0.210938,0.796875 c -0.28125,1.16015622 -0.351562,1.42968752 -0.351562,1.47656252 0,0.1171875 0.07031,0.2578125 0.269531,0.2578125 0.128906,0 0.257812,-0.070312 0.328125,-0.1875 0.02344,-0.046875 0.09375,-0.3398438 0.140625,-0.515625 l 0.210937,-0.79687502 c 0.09375,-0.421875 0.269532,-1.078125 0.269532,-1.1484375 0.02344,-0.0585938 0.246093,-0.48046875 0.574218,-0.796875 0.257813,-0.24609378 0.597657,-0.38671878 0.949219,-0.38671878 0.480469,0 0.480469,0.48046878 0.480469,0.63281253 0,0.5390625 -0.421875,1.640625 -0.515625,1.91015627 -0.117188,0.28125 -0.152344,0.375 -0.152344,0.5390625 0,0.4804687 0.375,0.75 0.773438,0.75 0.867187,0 1.207031,-1.2773438 1.207031,-1.3710938 0,-0.046875 -0.02344,-0.1171875 -0.117188,-0.1171875 -0.09375,0 -0.105468,0.046875 -0.140625,0.1640625 -0.222656,0.7617188 -0.597656,1.1015625 -0.925781,1.1015625 -0.05859,0 -0.222656,0 -0.222656,-0.28125 0,-0.2226562 0.09375,-0.4570312 0.164062,-0.65625 0.175782,-0.45703122 0.539063,-1.40624997 0.539063,-1.91015622 0,-0.79687498 -0.597656,-0.98437498 -1.066406,-0.98437498 -0.855469,0 -1.324219,0.63281248 -1.476563,0.85546873 -0.09375,-0.73828123 -0.703125,-0.85546873 -1.078125,-0.85546873 -0.832031,0 -1.277344,0.58593748 -1.417969,0.77343748 -0.05859,-0.48046878 -0.421875,-0.77343748 -0.867187,-0.77343748 -0.375,0 -0.5625,0.28125 -0.691406,0.515625 -0.152344,0.31640623 -0.28125,0.83203123 -0.28125,0.86718748 0,0.08203125 0.07031,0.10546875 0.128906,0.10546875 0.09375,0 0.117187,-0.046875 0.164062,-0.22265625 0.164063,-0.71484378 0.351563,-1.04296878 0.65625,-1.04296878 0.269532,0 0.269532,0.28125 0.269532,0.42187503 0,0.1875 -0.07031,0.46875 -0.117188,0.703125 -0.07031,0.234375 -0.152344,0.609375 -0.199219,0.7265625 L 54.447297,1.9781719 c -0.07031,0.2109375 -0.07031,0.234375 -0.07031,0.2578125 0,0.1171875 0.08203,0.2578125 0.28125,0.2578125 0.128907,0 0.257813,-0.070312 0.328125,-0.1875 0.02344,-0.046875 0.09375,-0.3398438 0.140625,-0.515625 z m 0,0"
         style="fill:#660066;fill-opacity:1;fill-rule:nonzero;stroke:none" />
      <path
         id="path22"
         d="m 63.781281,-0.49155469 c 0.01172,-0.0234375 0.02344,-0.0585937 0.02344,-0.0820312 0,-0.09375 -0.117188,-0.09375 -0.1875,-0.0820313 l -0.679688,0.046875 c -0.09375,0.0117188 -0.175781,0.0117188 -0.175781,0.15234375 0,0.09375 0.08203,0.09375 0.175781,0.09375 0.175782,0 0.210938,0.0234375 0.292969,0.046875 0,0.0703125 0,0.0820313 -0.02344,0.17578125 l -0.84375,3.33984379 c -0.02344,0.09375 -0.02344,0.1289062 -0.02344,0.140625 0,0.1523437 0.128906,0.1992187 0.210938,0.1992187 0.05859,0 0.175781,-0.023437 0.246093,-0.140625 0.04687,-0.070312 0.28125,-1.0664062 0.328125,-1.2539062 0.398438,0.023437 0.832032,0.1171875 0.832032,0.4804687 0,0.023437 0,0.058594 -0.02344,0.1171875 -0.01172,0.09375 -0.01172,0.1289063 -0.01172,0.1757813 0,0.3984375 0.328125,0.6210937 0.667969,0.6210937 0.585938,0 0.785156,-0.8671875 0.785156,-0.9140625 0,-0.011719 0,-0.09375 -0.105468,-0.09375 -0.08203,0 -0.09375,0.035156 -0.128907,0.140625 -0.05859,0.2226563 -0.222656,0.6679688 -0.527343,0.6679688 -0.234375,0 -0.234375,-0.2578125 -0.234375,-0.3164063 0,-0.09375 0,-0.1054687 0.03516,-0.2226562 0,-0.011719 0.02344,-0.1289063 0.02344,-0.1992188 0,-0.4570312 -0.515625,-0.5976562 -0.972656,-0.6445312 0.140625,-0.09375 0.269531,-0.1875 0.503906,-0.3984375 0.304688,-0.2578125 0.609375,-0.515625 0.9375,-0.515625 0.08203,0 0.152344,0.011719 0.210938,0.082031 -0.210938,0.035156 -0.304688,0.1992188 -0.304688,0.328125 0,0.1875 0.152344,0.234375 0.234375,0.234375 0.140625,0 0.351563,-0.09375 0.351563,-0.3984375 0,-0.2578125 -0.1875,-0.44531249 -0.480469,-0.44531249 -0.375,0 -0.738281,0.29296879 -1.007812,0.52734379 C 63.6055,1.6412578 63.418,1.7936016 63.195344,1.8756328 Z m 0,0"
         style="fill:#660066;fill-opacity:1;fill-rule:nonzero;stroke:none" />
      <path
         id="path23"
         d="m 70.63675,2.1451641 c 0.09375,0 0.246094,0 0.246094,-0.1523438 0,-0.1640625 -0.152344,-0.1640625 -0.246094,-0.1640625 h -3.761719 c -0.105468,0 -0.246093,0 -0.246093,0.1640625 0,0.1523438 0.140625,0.1523438 0.246093,0.1523438 z m 0,0"
         style="fill:#660066;fill-opacity:1;fill-rule:nonzero;stroke:none" />
      <path
         id="path24"
         d="m 73.786164,-0.31577344 c 0,-0.17578125 -0.02344,-0.17578125 -0.199219,-0.17578125 -0.398437,0.375 -1.007812,0.375 -1.21875,0.375 v 0.234375 c 0.152344,0 0.550782,0 0.902344,-0.1640625 V 2.9771953 c 0,0.1875 0,0.2695313 -0.609375,0.2695313 h -0.257812 v 0.234375 c 0.328125,-0.023437 0.796875,-0.023437 1.125,-0.023437 0.339843,0 0.796875,0 1.136718,0.023437 v -0.234375 h -0.257812 c -0.621094,0 -0.621094,-0.082031 -0.621094,-0.2695313 z m 0,0"
         style="fill:#660066;fill-opacity:1;fill-rule:nonzero;stroke:none" />
    </g>
    <path
       id="path25"
       d="M 995.922,1106.89 1370.23,732.57"
       style="fill:none;stroke:#b20000;stroke-width:11.9553;stroke-linecap:butt;stroke-linejoin:miter;stroke-miterlimit:10;stroke-dasharray:none;stroke-opacity:1"
       transform="matrix(0.13333333,0,0,-0.13333333,0,170.46667)" />
    <path
       id="path26"
       d="m 1392.78,710.027 -18.03,54.106 -4.52,-31.563 -31.55,-4.507"
       style="fill:#b20000;fill-opacity:1;fill-rule:nonzero;stroke:none"
       transform="matrix(0.13333333,0,0,-0.13333333,0,170.46667)" />
    <g
       id="g26"
       aria-label="−α∇f(&#10;˜&#10;θ&#10;k&#10;)"
       transform="matrix(1.3333333,0,0,1.3333333,167.128,53.421867)">
      <path
         id="path27"
         d="m 6.0475547,-2.050775 c 0.1640625,0 0.3398437,0 0.3398437,-0.1992187 0,-0.1875 -0.1875,-0.1875 -0.3398437,-0.1875 H 1.1022422 c -0.15234376,0 -0.32812501,0 -0.32812501,0.1875 0,0.1992187 0.1640625,0.1992187 0.32812501,0.1992187 z m 0,0"
         style="fill:#b20000;fill-opacity:1;fill-rule:nonzero;stroke:none" />
      <path
         id="path28"
         d="m 11.605172,-2.1093687 c 0,-1.3359375 -0.808594,-1.8515625 -1.570313,-1.8515625 -1.2187496,0 -2.4492184,1.2304687 -2.4492184,2.53125 0,0.91406245 0.6210938,1.52343745 1.5,1.52343745 0.9609374,0 1.6992184,-0.57421875 1.9335934,-0.75 0.117188,0.4453125 0.410157,0.75 0.855469,0.75 0.480469,0 0.773438,-0.46875 0.773438,-0.6328125 0,-0.09375 -0.09375,-0.09375 -0.128907,-0.09375 -0.09375,0 -0.105468,0.0351563 -0.128906,0.1171875 -0.09375,0.2578125 -0.328125,0.38671875 -0.492187,0.38671875 -0.292969,0 -0.292969,-0.796875 -0.292969,-0.9726562 0,-0.1171875 0,-0.140625 0.08203,-0.234375 0.152344,-0.1875 0.398438,-0.5039063 0.632813,-0.9609375 0.269531,-0.5273438 0.410156,-1.078125 0.410156,-1.125 0,-0.011719 0,-0.1054688 -0.117188,-0.1054688 -0.105468,0 -0.105468,0.035156 -0.152343,0.1757813 -0.09375,0.3164062 -0.292969,0.9960937 -0.855469,1.7460937 z m -0.632813,1.19531245 c -0.222656,0.1875 -0.949218,0.78515625 -1.8632809,0.78515625 -0.5039062,0 -0.8320312,-0.328125 -0.8320312,-0.9726562 0,-0.3867188 0.1640625,-1.2773438 0.5273437,-1.8515625 0.234375,-0.3632813 0.703125,-0.7851563 1.2304684,-0.7851563 0.597657,0 0.796875,0.5390625 0.878907,1.078125 0.07031,0.4804688 0.01172,1.3476563 0.05859,1.74609375 z m 0,0"
         style="fill:#b20000;fill-opacity:1;fill-rule:nonzero;stroke:none" />
      <path
         id="path29"
         d="m 20.262398,-5.9179625 c 0.01172,-0.023437 0.04687,-0.09375 0.04687,-0.1289062 0,-0.070312 -0.07031,-0.070312 -0.234375,-0.070312 h -6.328125 c -0.164062,0 -0.234375,0 -0.234375,0.070312 0,0.035156 0.04687,0.1054687 0.04687,0.1289062 l 3.082032,5.98828125 c 0.105468,0.1875 0.117187,0.22265625 0.269531,0.22265625 0.152344,0 0.175781,-0.046875 0.246094,-0.1875 z m -5.578125,0.46875 h 5.015625 l -2.507812,4.88671875 z m 0,0"
         style="fill:#b20000;fill-opacity:1;fill-rule:nonzero;stroke:none" />
      <path
         id="path30"
         d="m 22.550484,-3.5859312 h 0.808594 c 0.175781,0 0.269531,0 0.269531,-0.1640625 0,-0.1171875 -0.09375,-0.1171875 -0.257812,-0.1171875 h -0.761719 c 0.09375,-0.5390625 0.222656,-1.265625 0.339844,-1.7578125 0.08203,-0.3398438 0.292969,-0.46875 0.46875,-0.46875 0.05859,0 0.257812,0.011719 0.421875,0.1289062 -0.1875,0.035156 -0.445313,0.1875 -0.445313,0.4921875 0,0.2226563 0.175782,0.3164063 0.339844,0.3164063 0.246094,0 0.492188,-0.1992188 0.492188,-0.5390625 0,-0.3984375 -0.386719,-0.6210938 -0.808594,-0.6210938 -0.410156,0 -0.808594,0.28125 -0.996094,0.65625 -0.199219,0.375 -0.269531,0.7265625 -0.457031,1.7929688 h -0.644531 c -0.164063,0 -0.269532,0 -0.269532,0.1640625 0,0.1171875 0.09375,0.1171875 0.257813,0.1171875 h 0.609375 c -0.257813,1.3007812 -0.5625,3.09374995 -0.761719,4.0195312 -0.105469,0.50390625 -0.257812,1.1835938 -0.679687,1.1835938 -0.140625,0 -0.316407,-0.058594 -0.410157,-0.1289063 0.222657,-0.035156 0.445313,-0.2226562 0.445313,-0.4921875 0,-0.22265625 -0.164063,-0.328125 -0.339844,-0.328125 -0.234375,0 -0.492187,0.19921875 -0.492187,0.5390625 0,0.4101563 0.410156,0.6328125 0.796875,0.6328125 0.914062,0 1.335937,-1.48828125 1.476562,-2.26171875 z m 0,0"
         style="fill:#b20000;fill-opacity:1;fill-rule:nonzero;stroke:none" />
      <path
         id="path31"
         d="m 27.659859,2.1328188 c 0,-0.046875 -0.02344,-0.070312 -0.08203,-0.1289063 -1.160156,-1.06640625 -1.511719,-2.671875 -1.511719,-4.2421875 0,-1.3945312 0.269532,-3.0820312 1.535157,-4.2773437 0.03516,-0.035156 0.05859,-0.070312 0.05859,-0.1054688 0,-0.070312 -0.04687,-0.1054687 -0.105468,-0.1054687 -0.105469,0 -0.914063,0.6445312 -1.40625,1.6289062 -0.421875,0.8554688 -0.644532,1.78125 -0.644532,2.8476563 0,0.6445312 0.08203,1.66406245 0.574219,2.7304687 0.527344,1.1015625 1.371094,1.7460938 1.476563,1.7460938 0.05859,0 0.105468,-0.035156 0.105468,-0.09375 z m 4.927735,-10.5322266 c -0.246094,0.2460937 -0.445313,0.4101562 -0.726563,0.4101562 -0.199218,0 -0.363281,-0.070312 -0.644531,-0.2226562 -0.117187,-0.070312 -0.328125,-0.1875 -0.539062,-0.1875 -0.328125,0 -0.503907,0.1875 -0.984375,0.7148437 l 0.164062,0.1523438 c 0.234375,-0.2460938 0.445313,-0.421875 0.726563,-0.421875 0.1875,0 0.363281,0.082031 0.644531,0.234375 0.117187,0.070312 0.316406,0.1875 0.539062,0.1875 0.328125,0 0.492188,-0.1875 0.984375,-0.7148438 z m 0,0"
         style="fill:#b20000;fill-opacity:1;fill-rule:nonzero;stroke:none" />
      <path
         id="path32"
         d="m 32.370797,-4.4414 c 0,-0.9140625 -0.304688,-1.875 -1.125,-1.875 -1.3125,0 -2.683594,2.5546875 -2.683594,4.546875 0,0.6445313 0.199219,1.86328125 1.136719,1.86328125 1.300781,0 2.671875,-2.51953125 2.671875,-4.53515625 z m -2.824219,1.1835938 c 0.175781,-0.703125 0.363281,-1.359375 0.726563,-1.9804688 0.222656,-0.3515625 0.550781,-0.8554687 0.960937,-0.8554687 0.492188,0 0.527344,0.7734375 0.527344,1.1132812 0,0.5390625 -0.152344,1.1601563 -0.28125,1.7226563 z m 1.851563,0.2929687 c -0.140625,0.5625 -0.316407,1.2304688 -0.667969,1.875 -0.234375,0.421875 -0.597656,0.9609375 -1.019531,0.9609375 -0.386719,0 -0.515625,-0.45703125 -0.515625,-1.1132812 0,-0.5742188 0.140625,-1.1601563 0.28125,-1.7226563 z m 0,0"
         style="fill:#b20000;fill-opacity:1;fill-rule:nonzero;stroke:none" />
      <path
         id="path33"
         d="m 34.50068,-2.8915953 c 0.01172,-0.023437 0.02344,-0.058594 0.02344,-0.082031 0,-0.09375 -0.117187,-0.09375 -0.1875,-0.082031 l -0.679687,0.046875 c -0.09375,0.011719 -0.175782,0.011719 -0.175782,0.1523437 0,0.09375 0.08203,0.09375 0.175782,0.09375 0.175781,0 0.210937,0.023437 0.292968,0.046875 0,0.070312 0,0.082031 -0.02344,0.1757813 l -0.84375,3.33984374 c -0.02344,0.09375 -0.02344,0.12890625 -0.02344,0.140625 0,0.15234376 0.128907,0.19921876 0.210938,0.19921876 0.05859,0 0.175781,-0.023437 0.246094,-0.14062501 0.04687,-0.0703125 0.28125,-1.06640625 0.328125,-1.25390625 0.398437,0.0234375 0.832031,0.1171875 0.832031,0.48046875 0,0.0234375 0,0.0585938 -0.02344,0.1171875 -0.01172,0.09375 -0.01172,0.12890625 -0.01172,0.17578125 0,0.3984375 0.328125,0.62109376 0.667968,0.62109376 0.585938,0 0.785157,-0.86718751 0.785157,-0.91406251 0,-0.0117188 0,-0.09375 -0.105469,-0.09375 -0.08203,0 -0.09375,0.0351563 -0.128906,0.140625 -0.05859,0.22265625 -0.222657,0.66796875 -0.527344,0.66796875 -0.234375,0 -0.234375,-0.2578125 -0.234375,-0.31640625 0,-0.09375 0,-0.10546875 0.03516,-0.22265625 0,-0.0117188 0.02344,-0.12890625 0.02344,-0.19921875 0,-0.45703125 -0.515625,-0.59765625 -0.972657,-0.64453125 0.140625,-0.09375 0.269532,-0.1875 0.503907,-0.3984375 0.304687,-0.25781254 0.609375,-0.51562504 0.9375,-0.51562504 0.08203,0 0.152343,0.011719 0.210937,0.082031 -0.210937,0.035156 -0.304687,0.1992187 -0.304687,0.32812499 0,0.1875 0.152343,0.234375 0.234375,0.234375 0.140625,0 0.351562,-0.09375 0.351562,-0.39843749 0,-0.2578125 -0.1875,-0.4453125 -0.480469,-0.4453125 -0.375,0 -0.738281,0.2929687 -1.007812,0.5273437 -0.304688,0.26953129 -0.492188,0.42187504 -0.714844,0.50390629 z m 0,0"
         style="fill:#b20000;fill-opacity:1;fill-rule:nonzero;stroke:none" />
      <path
         id="path34"
         d="m 39.75068,-2.2499937 c 0,-0.7382813 -0.105469,-1.7226563 -0.574219,-2.71875 -0.527344,-1.1015625 -1.359375,-1.7578125 -1.464844,-1.7578125 -0.09375,0 -0.117187,0.070312 -0.117187,0.1054687 0,0.035156 0.02344,0.070312 0.08203,0.1289063 0.527344,0.46875 1.511719,1.6875 1.511719,4.2421875 0,1.2773437 -0.234375,3.07031245 -1.535157,4.2773437 -0.02344,0.023437 -0.05859,0.058594 -0.05859,0.1054688 0,0.023437 0.02344,0.09375 0.117187,0.09375 0.105469,0 0.914063,-0.6445313 1.394531,-1.61718755 0.433594,-0.85546875 0.644532,-1.78124995 0.644532,-2.85937495 z m 0,0"
         style="fill:#b20000;fill-opacity:1;fill-rule:nonzero;stroke:none" />
    </g>
    <path
       id="path35"
       d="M 315.602,653.336 1354.97,708.039"
       style="fill:none;stroke:#006666;stroke-width:15.9404;stroke-linecap:butt;stroke-linejoin:miter;stroke-miterlimit:10;stroke-dasharray:none;stroke-opacity:1"
       transform="matrix(0.13333333,0,0,-0.13333333,0,170.46667)" />
    <path
       id="path36"
       d="m 1392.78,710.027 -62.08,27.063 24.27,-29.051 -21.09,-31.437"
       style="fill:#006666;fill-opacity:1;fill-rule:nonzero;stroke:none"
       transform="matrix(0.13333333,0,0,-0.13333333,0,170.46667)" />
    <g
       id="g36"
       aria-label="−αm&#10;k"
       transform="matrix(1.3333333,0,0,1.3333333,95.6864,94.807333)">
      <path
         id="path37"
         d="m 6.0477,-2.0498359 c 0.1640625,0 0.3398437,0 0.3398437,-0.1992188 0,-0.1875 -0.1875,-0.1875 -0.3398437,-0.1875 H 1.1023875 c -0.15234375,0 -0.328125,0 -0.328125,0.1875 0,0.1992188 0.1640625,0.1992188 0.328125,0.1992188 z m 0,0"
         style="fill:#006666;fill-opacity:1;fill-rule:nonzero;stroke:none" />
      <path
         id="path38"
         d="m 11.605317,-2.1084297 c 0,-1.3359375 -0.808594,-1.8515625 -1.570312,-1.8515625 -1.2187503,0 -2.4492191,1.2304688 -2.4492191,2.53125 0,0.91406251 0.6210938,1.52343751 1.5,1.52343751 0.9609371,0 1.6992191,-0.57421875 1.9335941,-0.75 0.117187,0.4453125 0.410156,0.75 0.855468,0.75 0.480469,0 0.773438,-0.46875 0.773438,-0.6328125 0,-0.09375 -0.09375,-0.09375 -0.128906,-0.09375 -0.09375,0 -0.105469,0.0351563 -0.128907,0.1171875 -0.09375,0.2578125 -0.328125,0.38671875 -0.492187,0.38671875 -0.292969,0 -0.292969,-0.796875 -0.292969,-0.97265626 0,-0.1171875 0,-0.140625 0.08203,-0.234375 0.152344,-0.1875 0.398438,-0.5039062 0.632813,-0.9609375 0.269531,-0.5273437 0.410156,-1.078125 0.410156,-1.125 0,-0.011719 0,-0.1054687 -0.117187,-0.1054687 -0.105469,0 -0.105469,0.035156 -0.152344,0.1757812 -0.09375,0.3164063 -0.292969,0.9960938 -0.855469,1.7460938 z m -0.632812,1.19531251 c -0.222657,0.1875 -0.949219,0.78515625 -1.8632816,0.78515625 -0.5039062,0 -0.8320312,-0.328125 -0.8320312,-0.97265626 0,-0.3867187 0.1640625,-1.2773437 0.5273437,-1.8515625 0.234375,-0.3632812 0.703125,-0.7851562 1.2304691,-0.7851562 0.597656,0 0.796875,0.5390625 0.878906,1.078125 0.07031,0.4804687 0.01172,1.3476562 0.05859,1.74609371 z m 5.367187,-0.49218751 c 0.09375,-0.421875 0.269531,-1.078125 0.269531,-1.1484375 0.02344,-0.058594 0.246094,-0.4804687 0.5625,-0.796875 0.269532,-0.2460937 0.609375,-0.3867187 0.960938,-0.3867187 0.480469,0 0.480469,0.4804687 0.480469,0.6328125 0,0.1054687 0,0.2226562 -0.105469,0.6679687 l -0.210938,0.796875 c -0.28125,1.16015626 -0.351562,1.42968751 -0.351562,1.47656251 0,0.1171875 0.07031,0.2578125 0.269531,0.2578125 0.128906,0 0.257813,-0.0703125 0.328125,-0.1875 0.02344,-0.046875 0.09375,-0.33984375 0.140625,-0.515625 L 18.89438,-1.4053047 c 0.09375,-0.421875 0.269531,-1.078125 0.269531,-1.1484375 0.02344,-0.058594 0.246094,-0.4804687 0.574219,-0.796875 0.257812,-0.2460937 0.597656,-0.3867187 0.949218,-0.3867187 0.480469,0 0.480469,0.4804687 0.480469,0.6328125 0,0.5390625 -0.421875,1.640625 -0.515625,1.9101562 -0.117187,0.28125001 -0.152344,0.37500001 -0.152344,0.53906251 0,0.48046875 0.375,0.75 0.773438,0.75 0.867187,0 1.207031,-1.27734371 1.207031,-1.37109371 0,-0.046875 -0.02344,-0.1171875 -0.117187,-0.1171875 -0.09375,0 -0.105469,0.046875 -0.140625,0.1640625 -0.222657,0.76171871 -0.597657,1.10156246 -0.925782,1.10156246 -0.05859,0 -0.222656,0 -0.222656,-0.28125 0,-0.22265625 0.09375,-0.45703125 0.164063,-0.65624996 0.175781,-0.4570313 0.539062,-1.40625 0.539062,-1.9101563 0,-0.796875 -0.597656,-0.984375 -1.066406,-0.984375 -0.855469,0 -1.324219,0.6328125 -1.476563,0.8554688 -0.09375,-0.7382813 -0.703125,-0.8554688 -1.078125,-0.8554688 -0.832031,0 -1.277343,0.5859375 -1.417968,0.7734375 -0.05859,-0.4804687 -0.421875,-0.7734375 -0.867188,-0.7734375 -0.375,0 -0.5625,0.28125 -0.691406,0.515625 -0.152344,0.3164063 -0.28125,0.8320313 -0.28125,0.8671875 0,0.082031 0.07031,0.1054688 0.128906,0.1054688 0.09375,0 0.117188,-0.046875 0.164063,-0.2226563 0.164062,-0.7148437 0.351562,-1.0429687 0.65625,-1.0429687 0.269531,0 0.269531,0.28125 0.269531,0.421875 0,0.1875 -0.07031,0.46875 -0.117188,0.703125 -0.07031,0.234375 -0.152343,0.609375 -0.199218,0.7265625 l -0.351563,1.46484371 c -0.07031,0.2109375 -0.07031,0.234375 -0.07031,0.2578125 0,0.1171875 0.08203,0.2578125 0.28125,0.2578125 0.128906,0 0.257812,-0.0703125 0.328125,-0.1875 0.02344,-0.046875 0.09375,-0.33984375 0.140625,-0.515625 z m 0,0"
         style="fill:#006666;fill-opacity:1;fill-rule:nonzero;stroke:none" />
      <path
         id="path39"
         d="m 24.780122,-2.8935859 c 0.01172,-0.023437 0.02344,-0.058594 0.02344,-0.082031 0,-0.09375 -0.117187,-0.09375 -0.1875,-0.082031 l -0.679687,0.046875 c -0.09375,0.011719 -0.175781,0.011719 -0.175781,0.1523437 0,0.09375 0.08203,0.09375 0.175781,0.09375 0.175781,0 0.210937,0.023437 0.292969,0.046875 0,0.070312 0,0.082031 -0.02344,0.1757813 l -0.84375,3.33984371 c -0.02344,0.09375 -0.02344,0.12890625 -0.02344,0.140625 0,0.15234379 0.128906,0.19921879 0.210937,0.19921879 0.05859,0 0.175781,-0.023437 0.246094,-0.14062504 0.04687,-0.0703125 0.28125,-1.06640625 0.328125,-1.25390625 0.398437,0.0234375 0.832031,0.1171875 0.832031,0.48046875 0,0.0234375 0,0.0585937 -0.02344,0.1171875 -0.01172,0.09375 -0.01172,0.12890625 -0.01172,0.17578125 0,0.3984375 0.328125,0.62109379 0.667969,0.62109379 0.585937,0 0.785156,-0.86718754 0.785156,-0.91406254 0,-0.0117188 0,-0.09375 -0.105469,-0.09375 -0.08203,0 -0.09375,0.0351563 -0.128906,0.140625 -0.05859,0.22265625 -0.222656,0.66796875 -0.527344,0.66796875 -0.234375,0 -0.234375,-0.2578125 -0.234375,-0.31640625 0,-0.09375 0,-0.10546875 0.03516,-0.22265625 0,-0.0117188 0.02344,-0.12890625 0.02344,-0.19921875 0,-0.45703125 -0.515625,-0.59765625 -0.972656,-0.64453125 0.140625,-0.09375 0.269531,-0.1875 0.503906,-0.3984375 0.304687,-0.25781251 0.609375,-0.51562501 0.9375,-0.51562501 0.08203,0 0.152344,0.011719 0.210937,0.082031 -0.210937,0.035156 -0.304687,0.1992187 -0.304687,0.32812496 0,0.1875 0.152344,0.234375 0.234375,0.234375 0.140625,0 0.351562,-0.09375 0.351562,-0.39843746 0,-0.2578125 -0.1875,-0.4453125 -0.480468,-0.4453125 -0.375,0 -0.738282,0.2929687 -1.007813,0.5273437 -0.304687,0.26953126 -0.492187,0.42187501 -0.714844,0.50390626 z m 0,0"
         style="fill:#006666;fill-opacity:1;fill-rule:nonzero;stroke:none" />
    </g>
    <path
       id="path40"
       d="M 315.602,653.336 421.543,256.051"
       style="fill:none;stroke:#b9b9b9;stroke-width:9.9628;stroke-linecap:butt;stroke-linejoin:miter;stroke-miterlimit:10;stroke-dasharray:29.8883, 29.8883;stroke-dashoffset:0;stroke-opacity:1"
       transform="matrix(0.13333333,0,0,-0.13333333,0,170.46667)" />
    <path
       id="path41"
       d="m 428.984,228.133 10.422,50.621 -17.863,-22.703 -26.801,10.793"
       style="fill:#b9b9b9;fill-opacity:1;fill-rule:nonzero;stroke:none"
       transform="matrix(0.13333333,0,0,-0.13333333,0,170.46667)" />
    <g
       id="g41"
       aria-label="−α∇f(θ&#10;k&#10;)"
       transform="matrix(1.3333333,0,0,1.3333333,4.44688,152.11453)">
      <path
         id="path42"
         d="m 5.1902306,-1.5712516 c 0.1054688,0 0.2695313,0 0.2695313,-0.1757812 0,-0.1757813 -0.1523438,-0.1757813 -0.2695313,-0.1757813 H 1.0300744 c -0.10546877,0 -0.28125002,0 -0.28125002,0.1757813 0,0.1757812 0.1640625,0.1757812 0.28125002,0.1757812 z m 0,0"
         style="fill:#acacac;fill-opacity:1;fill-rule:nonzero;stroke:none" />
      <path
         id="path43"
         d="m 10.047653,-0.98531406 c 0.644531,-0.65625004 0.902343,-1.59375004 0.902343,-1.66406254 0,-0.09375 -0.08203,-0.09375 -0.117187,-0.09375 -0.09375,0 -0.09375,0.023437 -0.140625,0.1757813 -0.128906,0.4570312 -0.363281,0.890625 -0.65625,1.265625 0,-0.1054688 -0.02344,-0.5742188 -0.03516,-0.6328125 -0.1054692,-0.6914063 -0.6210942,-1.1367188 -1.3242192,-1.1367188 -1.0195313,0 -2.0039063,0.9492188 -2.0039063,1.921875 0,0.64453129 0.46875,1.21875004 1.2773438,1.21875004 0.6445312,0 1.21875,-0.29296875 1.6054687,-0.59765625 0.1640625,0.515625 0.515625,0.59765625 0.726563,0.59765625 0.410156,0 0.65625,-0.33984375 0.65625,-0.4921875 0,-0.0820313 -0.08203,-0.0820313 -0.117188,-0.0820313 -0.09375,0 -0.105469,0.0351563 -0.117187,0.0703125 -0.105469,0.26953125 -0.316407,0.3046875 -0.398438,0.3046875 -0.09375,0 -0.222656,0 -0.257812,-0.85546875 z m -0.539063,0.234375 c -0.6796875,0.5625 -1.2773437,0.62109375 -1.5351562,0.62109375 -0.46875,0 -0.7265625,-0.3046875 -0.7265625,-0.7734375 0,-0.19921879 0.1054687,-0.96093749 0.46875,-1.44140629 0.3164062,-0.421875 0.7148437,-0.5390625 0.9609375,-0.5390625 0.5507812,0 0.7148437,0.5390625 0.7734375,0.9726563 0.035156,0.3046875 0.023437,0.796875 0.058594,1.16015624 z m 0,0"
         style="fill:#acacac;fill-opacity:1;fill-rule:nonzero;stroke:none" />
      <path
         id="path44"
         d="m 17.518356,-4.5829703 c 0,-0.011719 0.04687,-0.082031 0.04687,-0.1171875 0,-0.058594 -0.05859,-0.058594 -0.175782,-0.058594 h -5.320312 c -0.128906,0 -0.1875,0 -0.1875,0.058594 0,0.035156 0.04687,0.09375 0.04687,0.1171875 l 2.566406,4.62890624 c 0.05859,0.1171875 0.08203,0.1640625 0.222656,0.1640625 0.140625,0 0.175782,-0.046875 0.222657,-0.15234375 z m -4.640625,0.375 h 4.148437 l -2.074219,3.73828124 z m 0,0"
         style="fill:#acacac;fill-opacity:1;fill-rule:nonzero;stroke:none" />
      <path
         id="path45"
         d="m 19.516403,-2.7548453 h 0.679687 c 0.140625,0 0.234375,0 0.234375,-0.1523438 0,-0.09375 -0.09375,-0.09375 -0.210937,-0.09375 h -0.65625 c 0.164062,-0.890625 0.222656,-1.2070312 0.28125,-1.4179687 0.03516,-0.1523438 0.1875,-0.2929688 0.351562,-0.2929688 0,0 0.199219,0 0.328125,0.082031 -0.292969,0.09375 -0.304687,0.3398437 -0.304687,0.3867187 0,0.1523438 0.117187,0.2578125 0.269531,0.2578125 0.199219,0 0.398437,-0.1640625 0.398437,-0.4335937 0,-0.3164063 -0.339843,-0.4921875 -0.691406,-0.4921875 -0.304687,0 -0.644531,0.1757812 -0.84375,0.5273437 -0.128906,0.2578125 -0.1875,0.5742188 -0.339844,1.3828125 h -0.550781 c -0.140625,0 -0.222656,0 -0.222656,0.1523438 0,0.09375 0.08203,0.09375 0.210937,0.09375 h 0.515625 c 0,0.046875 -0.445312,2.55468749 -0.609375,3.29296874 -0.03516,0.1640625 -0.152343,0.69140626 -0.492187,0.69140626 0,0 -0.175781,0 -0.304688,-0.082031 0.28125,-0.09375 0.304688,-0.35156246 0.304688,-0.38671871 0,-0.15234375 -0.117188,-0.2578125 -0.28125,-0.2578125 -0.1875,0 -0.398438,0.1640625 -0.398438,0.421875 0,0.31640621 0.328125,0.49218751 0.679688,0.49218751 0.445312,0 0.75,-0.45703126 0.84375,-0.60937501 0.246094,-0.46875 0.410156,-1.32421875 0.421875,-1.40625 z m 0,0"
         style="fill:#acacac;fill-opacity:1;fill-rule:nonzero;stroke:none" />
      <path
         id="path46"
         d="m 23.831832,-5.2275016 c -1.324219,0.9257813 -1.675781,2.4140625 -1.675781,3.4804688 0,0.98437499 0.292969,2.50781249 1.675781,3.4804687 0.05859,0 0.140625,0 0.140625,-0.082031 0,-0.046875 -0.02344,-0.058594 -0.07031,-0.1054688 -0.925782,-0.83203121 -1.265625,-2.01562496 -1.265625,-3.2929687 0,-1.875 0.714843,-2.8007813 1.289062,-3.3164063 0.02344,-0.023437 0.04687,-0.046875 0.04687,-0.082031 0,-0.082031 -0.08203,-0.082031 -0.140625,-0.082031 z m 0,0"
         style="fill:#acacac;fill-opacity:1;fill-rule:nonzero;stroke:none" />
      <path
         id="path47"
         d="m 28.041793,-3.3993766 c 0,-0.7265625 -0.28125,-1.5117187 -0.960937,-1.5117187 -1.042969,0 -2.167969,1.875 -2.167969,3.46875 0,0.83203124 0.328125,1.51171874 0.972656,1.51171874 1.054688,0 2.15625,-1.89843754 2.15625,-3.46875004 z m -2.332031,0.8554688 c 0.351562,-1.5117188 0.949219,-2.1679688 1.359375,-2.1679688 0.445312,0 0.445312,0.7734375 0.445312,0.9023438 0,0.2695312 -0.04687,0.6796875 -0.199218,1.265625 z m 1.546875,0.2460937 c -0.199219,0.7617188 -0.363281,1.1367188 -0.5625,1.47656254 -0.222656,0.36328125 -0.503906,0.69140625 -0.808594,0.69140625 -0.386719,0 -0.445312,-0.52734375 -0.445312,-0.90234379 0,-0.4570312 0.128906,-1.0078125 0.199218,-1.265625 z m 0,0"
         style="fill:#acacac;fill-opacity:1;fill-rule:nonzero;stroke:none" />
      <path
         id="path48"
         d="m 30.148238,-2.1894156 c 0.02344,-0.070312 0.02344,-0.082031 0.02344,-0.1054688 0,-0.082031 -0.07031,-0.082031 -0.152344,-0.082031 l -0.609375,0.046875 c -0.09375,0.011719 -0.09375,0.011719 -0.128906,0.035156 -0.01172,0.023437 -0.03516,0.082031 -0.03516,0.1171875 0,0.082031 0.08203,0.082031 0.152343,0.082031 0.01172,0 0.09375,0 0.175782,0.011719 0.09375,0.011719 0.09375,0.023437 0.09375,0.058594 0,0.011719 0,0.023437 -0.02344,0.1171875 l -0.691406,2.75390623 c -0.01172,0.0703125 -0.01172,0.0820313 -0.01172,0.10546875 0,0.11718752 0.08203,0.18750002 0.1875,0.18750002 0.1875,0 0.234375,-0.18750002 0.257813,-0.25781252 l 0.222656,-0.9140625 c 0.128906,0 0.75,0.03515625 0.75,0.38671875 0,0.0351563 0,0.0585938 -0.01172,0.1171875 -0.01172,0.0703125 -0.01172,0.10546875 -0.01172,0.12890625 0,0.3515625 0.316407,0.53906252 0.609375,0.53906252 0.503907,0 0.703125,-0.71484377 0.703125,-0.77343752 0,-0.0703125 -0.08203,-0.0703125 -0.105468,-0.0703125 -0.08203,0 -0.09375,0.0234375 -0.117188,0.1171875 -0.04687,0.1640625 -0.199219,0.55078125 -0.46875,0.55078125 -0.175781,0 -0.210937,-0.1875 -0.210937,-0.29296875 0,0 0,-0.0703125 0.02344,-0.15234375 0.02344,-0.0820313 0.02344,-0.140625 0.02344,-0.17578125 0,-0.43359375 -0.550782,-0.515625 -0.878907,-0.5390625 0.140625,-0.0820313 0.351563,-0.24609375 0.433594,-0.31640625 0.28125,-0.22265625 0.5625,-0.43359375 0.84375,-0.43359375 0.117188,0 0.140625,0.0234375 0.175781,0.0585938 -0.01172,0 -0.03516,0.0117188 -0.04687,0.0117188 -0.222656,0.0820313 -0.222656,0.28125 -0.222656,0.29296875 0,0.09375 0.05859,0.2109375 0.222656,0.2109375 0.09375,0 0.304688,-0.0820313 0.304688,-0.3515625 0,-0.24609375 -0.1875,-0.39843753 -0.421875,-0.39843753 -0.339844,0 -0.632813,0.23437503 -0.996094,0.52734378 -0.175781,0.140625 -0.339844,0.2578125 -0.539062,0.33984375 z m 0,0"
         style="fill:#acacac;fill-opacity:1;fill-rule:nonzero;stroke:none" />
      <path
         id="path49"
         d="m 33.271285,-5.2275016 c -0.05859,0 -0.140625,0 -0.140625,0.082031 0,0.035156 0.02344,0.058594 0.07031,0.1054687 0.597656,0.5507813 1.265625,1.4882813 1.265625,3.2929688 0,1.45312499 -0.457031,2.55468749 -1.207031,3.234375 -0.117188,0.1171875 -0.128907,0.1289062 -0.128907,0.1640625 0,0.035156 0.02344,0.082031 0.09375,0.082031 0.08203,0 0.75,-0.4570312 1.207032,-1.32421871 0.304687,-0.5859375 0.503906,-1.3359375 0.503906,-2.15624999 0,-0.984375 -0.292969,-2.5078125 -1.664063,-3.4804688 z m 0,0"
         style="fill:#acacac;fill-opacity:1;fill-rule:nonzero;stroke:none" />
    </g>
    <path
       id="path50"
       d="m 340.508,653.336 c 0,13.758 -11.153,24.906 -24.906,24.906 -13.758,0 -24.911,-11.148 -24.911,-24.906 0,-13.754 11.153,-24.906 24.911,-24.906 13.753,0 24.906,11.152 24.906,24.906 z"
       style="fill:#000000;fill-opacity:1;fill-rule:nonzero;stroke:none"
       transform="matrix(0.13333333,0,0,-0.13333333,0,170.46667)" />
    <path
       id="path51"
       d="m 1417.69,710.027 c 0,13.758 -11.15,24.911 -24.91,24.911 -13.76,0 -24.91,-11.153 -24.91,-24.911 0,-13.754 11.15,-24.906 24.91,-24.906 13.76,0 24.91,11.152 24.91,24.906 z"
       style="fill:#006666;fill-opacity:1;fill-rule:nonzero;stroke:none"
       transform="matrix(0.13333333,0,0,-0.13333333,0,170.46667)" />
    <g
       id="g51"
       aria-label="θ&#10;k"
       transform="matrix(1.3333333,0,0,1.3333333,25.538,96.350533)">
      <path
         id="path52"
         d="m 4.1726719,-4.4406344 c 0,-0.9140625 -0.3046875,-1.875 -1.125,-1.875 -1.3125,0 -2.68359378,2.5546875 -2.68359378,4.546875 0,0.6445313 0.19921875,1.86328128 1.13671878,1.86328128 1.3007812,0 2.671875,-2.51953128 2.671875,-4.53515628 z m -2.8242188,1.1835938 c 0.1757813,-0.703125 0.3632813,-1.359375 0.7265625,-1.9804688 0.2226563,-0.3515625 0.5507813,-0.8554687 0.9609375,-0.8554687 0.4921875,0 0.5273438,0.7734375 0.5273438,1.1132812 0,0.5390625 -0.1523438,1.1601563 -0.28125,1.7226563 z m 1.8515625,0.2929687 c -0.140625,0.5625 -0.3164062,1.2304688 -0.6679687,1.875 -0.234375,0.42187503 -0.5976563,0.96093753 -1.0195313,0.96093753 -0.3867187,0 -0.51562498,-0.45703125 -0.51562498,-1.11328123 0,-0.5742188 0.14062498,-1.1601563 0.28124998,-1.7226563 z m 0,0"
         style="fill:#000000;fill-opacity:1;fill-rule:nonzero;stroke:none" />
      <path
         id="path53"
         d="m 6.299625,-2.8937594 c 0.011719,-0.023437 0.023437,-0.058594 0.023437,-0.082031 0,-0.09375 -0.1171875,-0.09375 -0.1875,-0.082031 l -0.6796875,0.046875 c -0.09375,0.011719 -0.1757813,0.011719 -0.1757813,0.1523438 0,0.09375 0.082031,0.09375 0.1757813,0.09375 0.1757812,0 0.2109375,0.023437 0.2929687,0.046875 0,0.070312 0,0.082031 -0.023437,0.1757812 l -0.84375,3.33984378 c -0.023437,0.09375 -0.023437,0.12890625 -0.023437,0.140625 0,0.15234372 0.1289063,0.19921872 0.2109375,0.19921872 0.058594,0 0.1757813,-0.023437 0.2460938,-0.14062497 0.046875,-0.0703125 0.28125,-1.06640625 0.328125,-1.25390625 0.3984375,0.0234375 0.8320312,0.1171875 0.8320312,0.48046875 0,0.0234375 0,0.0585938 -0.023437,0.1171875 -0.011719,0.09375 -0.011719,0.12890625 -0.011719,0.17578125 0,0.3984375 0.328125,0.62109372 0.6679687,0.62109372 0.5859375,0 0.7851563,-0.86718747 0.7851563,-0.91406247 0,-0.0117188 0,-0.09375 -0.1054688,-0.09375 -0.082031,0 -0.09375,0.0351563 -0.1289062,0.140625 -0.058594,0.22265625 -0.2226563,0.66796875 -0.5273438,0.66796875 -0.234375,0 -0.234375,-0.2578125 -0.234375,-0.31640625 0,-0.09375 0,-0.10546875 0.035156,-0.22265625 0,-0.0117188 0.023437,-0.12890625 0.023437,-0.19921875 0,-0.45703125 -0.515625,-0.59765625 -0.9726563,-0.64453125 0.140625,-0.09375 0.2695313,-0.1875 0.5039063,-0.3984375 0.3046875,-0.25781248 0.609375,-0.51562498 0.9375,-0.51562498 0.082031,0 0.1523437,0.011719 0.2109375,0.082031 -0.2109375,0.035156 -0.3046875,0.1992188 -0.3046875,0.32812503 0,0.1875 0.1523437,0.234375 0.234375,0.234375 0.140625,0 0.3515625,-0.09375 0.3515625,-0.39843753 0,-0.2578125 -0.1875,-0.4453125 -0.4804688,-0.4453125 -0.375,0 -0.7382812,0.2929688 -1.0078125,0.5273438 -0.3046875,0.26953123 -0.4921875,0.42187498 -0.7148437,0.50390623 z m 0,0"
         style="fill:#000000;fill-opacity:1;fill-rule:nonzero;stroke:none" />
    </g>
    <g
       id="g53"
       aria-label="θ&#10;k+1"
       transform="matrix(1.3333333,0,0,1.3333333,190.39733,78.685467)">
      <path
         id="path54"
         d="m 4.1727031,-4.4428109 c 0,-0.9140625 -0.3046875,-1.875 -1.125,-1.875 -1.3125,0 -2.68359373,2.5546875 -2.68359373,4.546875 0,0.6445312 0.19921875,1.86328121 1.13671873,1.86328121 1.3007813,0 2.671875,-2.51953121 2.671875,-4.53515621 z m -2.8242187,1.1835937 c 0.1757812,-0.703125 0.3632812,-1.359375 0.7265625,-1.9804687 0.2226562,-0.3515625 0.5507812,-0.8554688 0.9609375,-0.8554688 0.4921875,0 0.5273437,0.7734375 0.5273437,1.1132813 0,0.5390625 -0.1523437,1.1601562 -0.28125,1.7226562 z m 1.8515625,0.2929688 c -0.140625,0.5625 -0.3164063,1.2304687 -0.6679688,1.875 -0.234375,0.42187496 -0.5976562,0.96093746 -1.0195312,0.96093746 -0.3867188,0 -0.51562503,-0.45703125 -0.51562503,-1.11328126 0,-0.5742187 0.14062503,-1.1601562 0.28125003,-1.7226562 z m 0,0"
         style="fill:#006666;fill-opacity:1;fill-rule:nonzero;stroke:none" />
      <path
         id="path55"
         d="m 6.2996562,-2.8930062 c 0.011719,-0.023437 0.023437,-0.058594 0.023437,-0.082031 0,-0.09375 -0.1171875,-0.09375 -0.1875,-0.082031 l -0.6796875,0.046875 c -0.09375,0.011719 -0.1757812,0.011719 -0.1757812,0.1523437 0,0.09375 0.082031,0.09375 0.1757812,0.09375 0.1757813,0 0.2109375,0.023437 0.2929688,0.046875 0,0.070312 0,0.082031 -0.023437,0.1757813 L 4.8816875,0.7984 C 4.85825,0.89215 4.85825,0.92730625 4.85825,0.939025 c 0,0.1523438 0.1289062,0.1992188 0.2109375,0.1992188 0.058594,0 0.1757812,-0.023437 0.2460937,-0.14062505 0.046875,-0.0703125 0.28125,-1.06640625 0.328125,-1.25390625 0.3984375,0.0234375 0.8320313,0.1171875 0.8320313,0.48046875 0,0.0234375 0,0.0585938 -0.023437,0.1171875 -0.011719,0.09375 -0.011719,0.12890625 -0.011719,0.17578125 0,0.3984375 0.328125,0.6210938 0.6679688,0.6210938 0.5859375,0 0.7851562,-0.86718755 0.7851562,-0.91406255 0,-0.0117188 0,-0.09375 -0.1054687,-0.09375 -0.082031,0 -0.09375,0.0351563 -0.1289063,0.140625 C 7.6004375,0.4937125 7.436375,0.939025 7.1316875,0.939025 c -0.234375,0 -0.234375,-0.2578125 -0.234375,-0.31640625 0,-0.09375 0,-0.10546875 0.035156,-0.22265625 0,-0.0117188 0.023437,-0.12890625 0.023437,-0.19921875 0,-0.45703125 -0.515625,-0.59765625 -0.9726562,-0.64453125 0.140625,-0.09375 0.2695312,-0.1875 0.5039062,-0.3984375 0.3046875,-0.2578125 0.609375,-0.515625 0.9375,-0.515625 0.082031,0 0.1523438,0.011719 0.2109375,0.082031 -0.2109375,0.035156 -0.3046875,0.1992187 -0.3046875,0.32812495 0,0.1875 0.1523438,0.234375 0.234375,0.234375 0.140625,0 0.3515625,-0.09375 0.3515625,-0.39843745 0,-0.2578125 -0.1875,-0.4453125 -0.4804687,-0.4453125 -0.375,0 -0.7382813,0.2929687 -1.0078125,0.5273437 C 6.123875,-0.76019375 5.936375,-0.60785 5.7137187,-0.52581875 Z m 0,0"
         style="fill:#006666;fill-opacity:1;fill-rule:nonzero;stroke:none" />
      <path
         id="path56"
         d="m 11.341648,-0.2562875 h 1.933594 c 0.08203,0 0.234375,0 0.234375,-0.15234375 0,-0.1640625 -0.152344,-0.1640625 -0.234375,-0.1640625 H 11.341648 V -2.5062875 c 0,-0.082031 0,-0.234375 -0.152343,-0.234375 -0.152344,0 -0.152344,0.1523438 -0.152344,0.234375 v 1.93359375 H 9.1033672 c -0.082031,0 -0.234375,0 -0.234375,0.1640625 0,0.15234375 0.1523437,0.15234375 0.234375,0.15234375 h 1.9335938 v 1.9335938 c 0,0.082031 0,0.234375 0.152344,0.234375 0.152343,0 0.152343,-0.1523438 0.152343,-0.234375 z m 4.842774,-2.4609375 c 0,-0.1757812 -0.02344,-0.1757812 -0.199219,-0.1757812 -0.398437,0.375 -1.007812,0.375 -1.21875,0.375 v 0.234375 c 0.152344,0 0.550781,0 0.902344,-0.1640625 v 3.02343745 c 0,0.1875 0,0.26953125 -0.609375,0.26953125 H 14.801609 V 1.07965 c 0.328125,-0.023437 0.796875,-0.023437 1.125,-0.023437 0.339844,0 0.796875,0 1.136719,0.023437 V 0.845275 h -0.257812 c -0.621094,0 -0.621094,-0.0820313 -0.621094,-0.26953125 z m 0,0"
         style="fill:#006666;fill-opacity:1;fill-rule:nonzero;stroke:none" />
    </g>
  </g>
</svg>
